solid 90DegreeTSlotCorner
facet normal 0.7071067661322127 -0.707106796240876 9.356256691984808e-08
  outer loop
    vertex 97.83474437358345 85.29550791453438 33.99999970198057
    vertex 77.83474331027367 65.2955071735575 30.000007641027498
    vertex 97.83474416187552 85.29550717355669 29.99999970198065
  endloop
endfacet
facet normal 0.7071067661322127 -0.707106796240876 9.356256691984808e-08
  outer loop
    vertex 77.83474331027367 65.2955071735575 30.000007641027498
    vertex 97.83474437358345 85.29550791453438 33.99999970198057
    vertex 77.8347435219816 65.2955079145352 34.00000764102742
  endloop
endfacet
facet normal 5.292697975130547e-08 1.852444257491143e-07 0.9999999999999816
  outer loop
    vertex 57.834744373583455 65.2955079145352 34.00000764102742
    vertex 65.4199298078608 74.64846030177861 34.00000542533972
    vertex 57.834744373583455 105.29550791453443 33.99999970198057
  endloop
endfacet
facet normal 5.292697975130547e-08 1.852444257491143e-07 0.9999999999999816
  outer loop
    vertex 65.4199298078608 74.64846030177861 34.00000542533972
    vertex 57.834744373583455 65.2955079145352 34.00000764102742
    vertex 65.66968086412237 74.04550791453494 34.00000552381472
  endloop
endfacet
facet normal 5.292697975130547e-08 1.852444257491143e-07 0.9999999999999816
  outer loop
    vertex 65.66968086412237 74.04550791453494 34.00000552381472
    vertex 57.834744373583455 65.2955079145352 34.00000764102742
    vertex 66.06697742061709 73.52774096156857 34.000005598700454
  endloop
endfacet
facet normal 5.292697975130547e-08 1.852444257491143e-07 0.9999999999999816
  outer loop
    vertex 66.06697742061709 73.52774096156857 34.000005598700454
    vertex 57.834744373583455 65.2955079145352 34.00000764102742
    vertex 66.58474437358346 73.13044440507385 34.000005644893584
  endloop
endfacet
facet normal 5.292697975130547e-08 1.852444257491143e-07 0.9999999999999816
  outer loop
    vertex 66.58474437358346 73.13044440507385 34.000005644893584
    vertex 57.834744373583455 65.2955079145352 34.00000764102742
    vertex 77.8347435219816 65.2955079145352 34.00000764102742
  endloop
endfacet
facet normal 5.292697975130547e-08 1.852444257491143e-07 0.9999999999999816
  outer loop
    vertex 57.834744373583455 105.29550791453443 33.99999970198057
    vertex 65.4199298078608 74.64846030177861 34.00000542533972
    vertex 65.33474437358346 75.29550791453491 34.00000530998636
  endloop
endfacet
facet normal 5.292697975130547e-08 1.852444257491143e-07 0.9999999999999816
  outer loop
    vertex 66.58474437358346 73.13044440507385 34.000005644893584
    vertex 77.8347435219816 65.2955079145352 34.00000764102742
    vertex 67.18769676082715 72.88069334881227 34.00000565924613
  endloop
endfacet
facet normal 5.292697975130547e-08 1.852444257491143e-07 0.9999999999999816
  outer loop
    vertex 67.18769676082715 72.88069334881227 34.00000565924613
    vertex 77.8347435219816 65.2955079145352 34.00000764102742
    vertex 67.83474437358345 72.79550791453494 34.00000564077998
  endloop
endfacet
facet normal 5.292697975130547e-08 1.852444257491143e-07 0.9999999999999816
  outer loop
    vertex 67.83474437358345 72.79550791453494 34.00000564077998
    vertex 77.8347435219816 65.2955079145352 34.00000764102742
    vertex 68.48179198633974 72.88069334881227 34.00000559075358
  endloop
endfacet
facet normal 5.292697975130547e-08 1.852444257491143e-07 0.9999999999999816
  outer loop
    vertex 68.48179198633974 72.88069334881227 34.00000559075358
    vertex 77.8347435219816 65.2955079145352 34.00000764102742
    vertex 69.08474437358345 73.13044440507382 34.00000551257614
  endloop
endfacet
facet normal 5.292697975130547e-08 1.852444257491143e-07 0.9999999999999816
  outer loop
    vertex 69.08474437358345 73.13044440507382 34.00000551257614
    vertex 77.8347435219816 65.2955079145352 34.00000764102742
    vertex 69.60251132654982 73.52774096156854 34.00000541157533
  endloop
endfacet
facet normal 5.292697975130547e-08 1.852444257491143e-07 0.9999999999999816
  outer loop
    vertex 69.60251132654982 73.52774096156854 34.00000541157533
    vertex 77.8347435219816 65.2955079145352 34.00000764102742
    vertex 69.99980788304453 74.0455079145349 34.00000529463418
  endloop
endfacet
facet normal 5.292697975130547e-08 1.852444257491143e-07 0.9999999999999816
  outer loop
    vertex 69.99980788304453 74.0455079145349 34.00000529463418
    vertex 77.8347435219816 65.2955079145352 34.00000764102742
    vertex 70.2495589393061 74.64846030177857 34.000005169722044
  endloop
endfacet
facet normal 5.292697975130547e-08 1.852444257491143e-07 0.9999999999999816
  outer loop
    vertex 70.2495589393061 74.64846030177857 34.000005169722044
    vertex 77.8347435219816 65.2955079145352 34.00000764102742
    vertex 70.33474437358343 75.29550791453487 34.00000504535147
  endloop
endfacet
facet normal 5.292697975130547e-08 1.852444257491143e-07 0.9999999999999816
  outer loop
    vertex 77.8347435219816 65.2955079145352 34.00000764102742
    vertex 85.4199298078608 94.64846030177816 33.999999949651375
    vertex 85.33474437358346 95.29550791453444 33.999999834298016
  endloop
endfacet
facet normal 5.292697975130547e-08 1.852444257491143e-07 0.9999999999999816
  outer loop
    vertex 85.4199298078608 94.64846030177816 33.999999949651375
    vertex 77.8347435219816 65.2955079145352 34.00000764102742
    vertex 85.66968086412236 94.04550791453447 34.000000048126374
  endloop
endfacet
facet normal 5.292697975130547e-08 1.852444257491143e-07 0.9999999999999816
  outer loop
    vertex 85.66968086412236 94.04550791453447 34.000000048126374
    vertex 77.8347435219816 65.2955079145352 34.00000764102742
    vertex 86.06697742061709 93.5277409615681 34.00000012301211
  endloop
endfacet
facet normal 5.292697975130547e-08 1.852444257491143e-07 0.9999999999999816
  outer loop
    vertex 86.06697742061709 93.5277409615681 34.00000012301211
    vertex 77.8347435219816 65.2955079145352 34.00000764102742
    vertex 86.58474437358346 93.13044440507338 34.000000169205244
  endloop
endfacet
facet normal 5.292697975130547e-08 1.852444257491143e-07 0.9999999999999816
  outer loop
    vertex 86.58474437358346 93.13044440507338 34.000000169205244
    vertex 77.8347435219816 65.2955079145352 34.00000764102742
    vertex 97.83474437358345 85.29550791453438 33.99999970198057
  endloop
endfacet
facet normal 5.292697975130547e-08 1.852444257491143e-07 0.9999999999999816
  outer loop
    vertex 86.58474437358346 93.13044440507338 34.000000169205244
    vertex 97.83474437358345 85.29550791453438 33.99999970198057
    vertex 87.18769676082715 92.88069334881182 34.00000018355778
  endloop
endfacet
facet normal 5.292697975130547e-08 1.852444257491143e-07 0.9999999999999816
  outer loop
    vertex 87.18769676082715 92.88069334881182 34.00000018355778
    vertex 97.83474437358345 85.29550791453438 33.99999970198057
    vertex 87.83474437358345 92.79550791453447 34.000000165091635
  endloop
endfacet
facet normal 5.292697975130547e-08 1.852444257491143e-07 0.9999999999999816
  outer loop
    vertex 87.83474437358345 92.79550791453447 34.000000165091635
    vertex 97.83474437358345 85.29550791453438 33.99999970198057
    vertex 88.48179198633974 92.8806933488118 34.000000115065234
  endloop
endfacet
facet normal 5.292697975130547e-08 1.852444257491143e-07 0.9999999999999816
  outer loop
    vertex 88.48179198633974 92.8806933488118 34.000000115065234
    vertex 97.83474437358345 85.29550791453438 33.99999970198057
    vertex 89.08474437358345 93.13044440507336 34.0000000368878
  endloop
endfacet
facet normal 5.292697975130547e-08 1.852444257491143e-07 0.9999999999999816
  outer loop
    vertex 89.08474437358345 93.13044440507336 34.0000000368878
    vertex 97.83474437358345 85.29550791453438 33.99999970198057
    vertex 89.6025113265498 93.52774096156807 33.99999993588698
  endloop
endfacet
facet normal 5.292697975130547e-08 1.852444257491143e-07 0.9999999999999816
  outer loop
    vertex 89.6025113265498 93.52774096156807 33.99999993588698
    vertex 97.83474437358345 85.29550791453438 33.99999970198057
    vertex 89.99980788304453 94.04550791453444 33.99999981894583
  endloop
endfacet
facet normal 5.292697975130547e-08 1.852444257491143e-07 0.9999999999999816
  outer loop
    vertex 89.99980788304453 94.04550791453444 33.99999981894583
    vertex 97.83474437358345 85.29550791453438 33.99999970198057
    vertex 90.2495589393061 94.6484603017781 33.9999996940337
  endloop
endfacet
facet normal 5.292697975130547e-08 1.852444257491143e-07 0.9999999999999816
  outer loop
    vertex 90.2495589393061 94.6484603017781 33.9999996940337
    vertex 97.83474437358345 85.29550791453438 33.99999970198057
    vertex 90.33474437358343 95.2955079145344 33.999999569663125
  endloop
endfacet
facet normal 5.292697975130547e-08 1.852444257491143e-07 0.9999999999999816
  outer loop
    vertex 57.834744373583455 105.29550791453443 33.99999970198057
    vertex 86.58474437358345 97.46057142399548 33.99999936707335
    vertex 97.83474437358345 105.29550791453443 33.99999970198057
  endloop
endfacet
facet normal 5.292697975130547e-08 1.852444257491143e-07 0.9999999999999816
  outer loop
    vertex 86.58474437358345 97.46057142399548 33.99999936707335
    vertex 57.834744373583455 105.29550791453443 33.99999970198057
    vertex 86.06697742061708 97.06327486750077 33.99999946807416
  endloop
endfacet
facet normal 5.292697975130547e-08 1.852444257491143e-07 0.9999999999999816
  outer loop
    vertex 86.06697742061708 97.06327486750077 33.99999946807416
    vertex 57.834744373583455 105.29550791453443 33.99999970198057
    vertex 66.06697742061709 77.06327486750122 34.000004943762505
  endloop
endfacet
facet normal 5.292697975130547e-08 1.852444257491143e-07 0.9999999999999816
  outer loop
    vertex 66.06697742061709 77.06327486750122 34.000004943762505
    vertex 57.834744373583455 105.29550791453443 33.99999970198057
    vertex 65.66968086412237 76.54550791453487 34.00000506070366
  endloop
endfacet
facet normal 5.292697975130547e-08 1.852444257491143e-07 0.9999999999999816
  outer loop
    vertex 65.66968086412237 76.54550791453487 34.00000506070366
    vertex 57.834744373583455 105.29550791453443 33.99999970198057
    vertex 65.4199298078608 75.94255552729119 34.00000518561579
  endloop
endfacet
facet normal 5.292697975130547e-08 1.852444257491143e-07 0.9999999999999816
  outer loop
    vertex 65.4199298078608 75.94255552729119 34.00000518561579
    vertex 57.834744373583455 105.29550791453443 33.99999970198057
    vertex 65.33474437358346 75.29550791453491 34.00000530998636
  endloop
endfacet
facet normal 5.292697975130547e-08 1.852444257491143e-07 0.9999999999999816
  outer loop
    vertex 86.06697742061708 97.06327486750077 33.99999946807416
    vertex 66.06697742061709 77.06327486750122 34.000004943762505
    vertex 66.58474437358345 77.46057142399594 34.00000484276169
  endloop
endfacet
facet normal 5.292697975130547e-08 1.852444257491143e-07 0.9999999999999816
  outer loop
    vertex 86.06697742061708 97.06327486750077 33.99999946807416
    vertex 66.58474437358345 77.46057142399594 34.00000484276169
    vertex 67.18769676082715 77.7103224802575 34.000004764584254
  endloop
endfacet
facet normal 5.292697975130547e-08 1.852444257491143e-07 0.9999999999999816
  outer loop
    vertex 86.06697742061708 97.06327486750077 33.99999946807416
    vertex 67.18769676082715 77.7103224802575 34.000004764584254
    vertex 67.83474437358345 77.79550791453484 34.00000471455785
  endloop
endfacet
facet normal 5.292697975130547e-08 1.852444257491143e-07 0.9999999999999816
  outer loop
    vertex 86.06697742061708 97.06327486750077 33.99999946807416
    vertex 67.83474437358345 77.79550791453484 34.00000471455785
    vertex 68.48179198633974 77.71032248025749 34.00000469609171
  endloop
endfacet
facet normal 5.292697975130547e-08 1.852444257491143e-07 0.9999999999999816
  outer loop
    vertex 86.06697742061708 97.06327486750077 33.99999946807416
    vertex 68.48179198633974 77.71032248025749 34.00000469609171
    vertex 69.08474437358343 77.46057142399593 34.000004710444244
  endloop
endfacet
facet normal 5.292697975130547e-08 1.852444257491143e-07 0.9999999999999816
  outer loop
    vertex 86.06697742061708 97.06327486750077 33.99999946807416
    vertex 69.08474437358343 77.46057142399593 34.000004710444244
    vertex 69.6025113265498 77.0632748675012 34.00000475663738
  endloop
endfacet
facet normal 5.292697975130547e-08 1.852444257491143e-07 0.9999999999999816
  outer loop
    vertex 86.06697742061708 97.06327486750077 33.99999946807416
    vertex 69.6025113265498 77.0632748675012 34.00000475663738
    vertex 69.99980788304453 76.54550791453484 34.000004831523114
  endloop
endfacet
facet normal 5.292697975130547e-08 1.852444257491143e-07 0.9999999999999816
  outer loop
    vertex 86.06697742061708 97.06327486750077 33.99999946807416
    vertex 69.99980788304453 76.54550791453484 34.000004831523114
    vertex 85.66968086412236 96.54550791453441 33.99999958501531
  endloop
endfacet
facet normal 5.292697975130547e-08 1.852444257491143e-07 0.9999999999999816
  outer loop
    vertex 85.66968086412236 96.54550791453441 33.99999958501531
    vertex 69.99980788304453 76.54550791453484 34.000004831523114
    vertex 70.2495589393061 75.94255552729115 34.00000492999811
  endloop
endfacet
facet normal 5.292697975130547e-08 1.852444257491143e-07 0.9999999999999816
  outer loop
    vertex 85.66968086412236 96.54550791453441 33.99999958501531
    vertex 70.2495589393061 75.94255552729115 34.00000492999811
    vertex 70.33474437358343 75.29550791453487 34.00000504535147
  endloop
endfacet
facet normal 5.292697975130547e-08 1.852444257491143e-07 0.9999999999999816
  outer loop
    vertex 85.66968086412236 96.54550791453441 33.99999958501531
    vertex 70.33474437358343 75.29550791453487 34.00000504535147
    vertex 85.4199298078608 95.94255552729074 33.999999709927444
  endloop
endfacet
facet normal 5.292697975130547e-08 1.852444257491143e-07 0.9999999999999816
  outer loop
    vertex 85.4199298078608 95.94255552729074 33.999999709927444
    vertex 70.33474437358343 75.29550791453487 34.00000504535147
    vertex 77.8347435219816 65.2955079145352 34.00000764102742
  endloop
endfacet
facet normal 5.292697975130547e-08 1.852444257491143e-07 0.9999999999999816
  outer loop
    vertex 85.4199298078608 95.94255552729074 33.999999709927444
    vertex 77.8347435219816 65.2955079145352 34.00000764102742
    vertex 85.33474437358346 95.29550791453444 33.999999834298016
  endloop
endfacet
facet normal 5.292697975130547e-08 1.852444257491143e-07 0.9999999999999816
  outer loop
    vertex 97.83474437358345 105.29550791453443 33.99999970198057
    vertex 86.58474437358345 97.46057142399548 33.99999936707335
    vertex 87.18769676082715 97.71032248025703 33.99999928889591
  endloop
endfacet
facet normal 5.292697975130547e-08 1.852444257491143e-07 0.9999999999999816
  outer loop
    vertex 97.83474437358345 105.29550791453443 33.99999970198057
    vertex 87.18769676082715 97.71032248025703 33.99999928889591
    vertex 87.83474437358345 97.79550791453437 33.999999238869506
  endloop
endfacet
facet normal 5.292697975130547e-08 1.852444257491143e-07 0.9999999999999816
  outer loop
    vertex 97.83474437358345 105.29550791453443 33.99999970198057
    vertex 87.83474437358345 97.79550791453437 33.999999238869506
    vertex 88.48179198633973 97.71032248025702 33.99999922040336
  endloop
endfacet
facet normal 5.292697975130547e-08 1.852444257491143e-07 0.9999999999999816
  outer loop
    vertex 97.83474437358345 105.29550791453443 33.99999970198057
    vertex 88.48179198633973 97.71032248025702 33.99999922040336
    vertex 89.08474437358343 97.46057142399546 33.999999234755904
  endloop
endfacet
facet normal 5.292697975130547e-08 1.852444257491143e-07 0.9999999999999816
  outer loop
    vertex 97.83474437358345 105.29550791453443 33.99999970198057
    vertex 89.08474437358343 97.46057142399546 33.999999234755904
    vertex 89.6025113265498 97.06327486750074 33.999999280949034
  endloop
endfacet
facet normal 5.292697975130547e-08 1.852444257491143e-07 0.9999999999999816
  outer loop
    vertex 97.83474437358345 105.29550791453443 33.99999970198057
    vertex 89.6025113265498 97.06327486750074 33.999999280949034
    vertex 89.99980788304453 96.54550791453437 33.99999935583477
  endloop
endfacet
facet normal 5.292697975130547e-08 1.852444257491143e-07 0.9999999999999816
  outer loop
    vertex 97.83474437358345 105.29550791453443 33.99999970198057
    vertex 89.99980788304453 96.54550791453437 33.99999935583477
    vertex 90.2495589393061 95.9425555272907 33.999999454309766
  endloop
endfacet
facet normal 5.292697975130547e-08 1.852444257491143e-07 0.9999999999999816
  outer loop
    vertex 97.83474437358345 105.29550791453443 33.99999970198057
    vertex 90.2495589393061 95.9425555272907 33.999999454309766
    vertex 90.33474437358343 95.2955079145344 33.999999569663125
  endloop
endfacet
facet normal 5.292697975130547e-08 1.852444257491143e-07 0.9999999999999816
  outer loop
    vertex 97.83474437358345 105.29550791453443 33.99999970198057
    vertex 90.33474437358343 95.2955079145344 33.999999569663125
    vertex 97.83474437358345 85.29550791453438 33.99999970198057
  endloop
endfacet
facet normal 0.0 -0.9999999999999828 1.852444257491145e-07
  outer loop
    vertex 77.8347435219816 65.2955079145352 34.00000764102742
    vertex 70.83474416187194 65.2955071735576 30.000008032052442
    vertex 77.83474331027367 65.2955071735575 30.000007641027498
  endloop
endfacet
facet normal 0.0 -0.9999999999999828 1.852444257491145e-07
  outer loop
    vertex 70.83474416187194 65.2955071735576 30.000008032052442
    vertex 77.8347435219816 65.2955079145352 34.00000764102742
    vertex 64.83474416187195 65.2955071735576 30.000008162394085
  endloop
endfacet
facet normal 0.0 -0.9999999999999828 1.852444257491145e-07
  outer loop
    vertex 64.83474416187195 65.2955071735576 30.000008162394085
    vertex 57.834744373583455 65.2955079145352 34.00000764102742
    vertex 57.834744161875534 65.2955071735575 30.000007641027498
  endloop
endfacet
facet normal 0.0 -0.9999999999999828 1.852444257491145e-07
  outer loop
    vertex 57.834744373583455 65.2955079145352 34.00000764102742
    vertex 64.83474416187195 65.2955071735576 30.000008162394085
    vertex 77.8347435219816 65.2955079145352 34.00000764102742
  endloop
endfacet
facet normal 0.0 -0.9999999999999828 1.852444257491145e-07
  outer loop
    vertex 70.83474416187194 65.2955071735576 30.000008032052442
    vertex 64.83474416187195 65.29550716378198 28.50000816239408
    vertex 70.83474416187194 65.29550716378198 28.500008032052445
  endloop
endfacet
facet normal 0.0 -0.9999999999999828 1.852444257491145e-07
  outer loop
    vertex 64.83474416187195 65.29550716378198 28.50000816239408
    vertex 70.83474416187194 65.2955071735576 30.000008032052442
    vertex 64.83474416187195 65.2955071735576 30.000008162394085
  endloop
endfacet
facet normal 0.0 0.9999999999999829 -1.8524442574911453e-07
  outer loop
    vertex 57.834744373583455 105.29550791453443 33.99999970198057
    vertex 97.83474416187552 105.29550717355671 29.99999970198065
    vertex 57.834744161875534 105.29550717355671 29.99999970198065
  endloop
endfacet
facet normal 0.0 0.9999999999999829 -1.8524442574911453e-07
  outer loop
    vertex 97.83474416187552 105.29550717355671 29.99999970198065
    vertex 57.834744373583455 105.29550791453443 33.99999970198057
    vertex 97.83474437358345 105.29550791453443 33.99999970198057
  endloop
endfacet
facet normal -0.9999999999999987 1.0504744296883921e-14 5.292697975130443e-08
  outer loop
    vertex 57.834744373583455 65.2955079145352 34.00000764102742
    vertex 57.834744161875534 105.29550717355671 29.99999970198065
    vertex 57.834744161875534 65.2955071735575 30.000007641027498
  endloop
endfacet
facet normal -0.9999999999999987 1.0504744296883921e-14 5.292697975130443e-08
  outer loop
    vertex 57.834744161875534 105.29550717355671 29.99999970198065
    vertex 57.834744373583455 65.2955079145352 34.00000764102742
    vertex 57.834744373583455 105.29550791453443 33.99999970198057
  endloop
endfacet
facet normal 0.9999999999999986 0.0 -5.292697975130637e-08
  outer loop
    vertex 97.83474412811562 98.29550706102388 28.500006224016406
    vertex 97.83474416187552 92.29550717355671 29.99999970198065
    vertex 97.83474412811569 92.2955070610239 28.50000712428333
  endloop
endfacet
facet normal 0.9999999999999986 0.0 -5.292697975130637e-08
  outer loop
    vertex 97.83474416187552 92.29550717355671 29.99999970198065
    vertex 97.83474437358345 85.29550791453438 33.99999970198057
    vertex 97.83474416187552 85.29550717355669 29.99999970198065
  endloop
endfacet
facet normal 0.9999999999999986 0.0 -5.292697975130637e-08
  outer loop
    vertex 97.83474437358345 85.29550791453438 33.99999970198057
    vertex 97.83474416187552 92.29550717355671 29.99999970198065
    vertex 97.83474437358345 105.29550791453443 33.99999970198057
  endloop
endfacet
facet normal 0.9999999999999986 0.0 -5.292697975130637e-08
  outer loop
    vertex 97.83474437358345 105.29550791453443 33.99999970198057
    vertex 97.83474416187552 92.29550717355671 29.99999970198065
    vertex 97.83474416187545 98.2955071735567 29.99999880171373
  endloop
endfacet
facet normal 0.9999999999999986 0.0 -5.292697975130637e-08
  outer loop
    vertex 97.83474416187545 98.2955071735567 29.99999880171373
    vertex 97.83474416187552 92.29550717355671 29.99999970198065
    vertex 97.83474412811562 98.29550706102388 28.500006224016406
  endloop
endfacet
facet normal 0.9999999999999986 0.0 -5.292697975130637e-08
  outer loop
    vertex 97.83474437358345 105.29550791453443 33.99999970198057
    vertex 97.83474416187545 98.2955071735567 29.99999880171373
    vertex 97.83474416187552 105.29550717355671 29.99999970198065
  endloop
endfacet
facet normal 4.699944138601184e-16 -6.517082270507436e-09 -1.0
  outer loop
    vertex 64.83474416187195 85.29550716378186 28.5000079017108
    vertex 65.33474408248513 75.29550689569076 28.50000641338676
    vertex 64.83474416187195 65.29550716378198 28.50000816239408
  endloop
endfacet
facet normal 4.699944138601184e-16 -6.517082270507436e-09 -1.0
  outer loop
    vertex 65.33474408248513 75.29550689569076 28.50000641338676
    vertex 64.83474416187195 85.29550716378186 28.5000079017108
    vertex 65.41992951676245 75.94255450844706 28.500006289016188
  endloop
endfacet
facet normal 4.699944138601184e-16 -6.517082270507436e-09 -1.0
  outer loop
    vertex 65.41992951676245 75.94255450844706 28.500006289016188
    vertex 64.83474416187195 85.29550716378186 28.5000079017108
    vertex 65.66968057302402 76.54550689569072 28.500006164104047
  endloop
endfacet
facet normal 4.699944138601184e-16 -6.517082270507436e-09 -1.0
  outer loop
    vertex 65.66968057302402 76.54550689569072 28.500006164104047
    vertex 64.83474416187195 85.29550716378186 28.5000079017108
    vertex 70.83474416187194 85.29550716378186 28.500008032052445
  endloop
endfacet
facet normal 4.699944138601184e-16 -6.517082270507436e-09 -1.0
  outer loop
    vertex 65.66968057302402 76.54550689569072 28.500006164104047
    vertex 70.83474416187194 85.29550716378186 28.500008032052445
    vertex 66.06697712951875 77.06327384865708 28.500006047162902
  endloop
endfacet
facet normal 4.699944138601184e-16 -6.517082270507436e-09 -1.0
  outer loop
    vertex 66.06697712951875 77.06327384865708 28.500006047162902
    vertex 70.83474416187194 85.29550716378186 28.500008032052445
    vertex 66.58474408248512 77.4605704051518 28.50000594616209
  endloop
endfacet
facet normal 4.699944138601184e-16 -6.517082270507436e-09 -1.0
  outer loop
    vertex 66.58474408248512 77.4605704051518 28.50000594616209
    vertex 70.83474416187194 85.29550716378186 28.500008032052445
    vertex 67.1876964697288 77.71032146141336 28.500005867984644
  endloop
endfacet
facet normal 4.699944138601184e-16 -6.517082270507436e-09 -1.0
  outer loop
    vertex 67.1876964697288 77.71032146141336 28.500005867984644
    vertex 70.83474416187194 85.29550716378186 28.500008032052445
    vertex 67.83474408248512 77.79550689569069 28.50000581795825
  endloop
endfacet
facet normal 4.699944138601184e-16 -6.517082270507436e-09 -1.0
  outer loop
    vertex 67.83474408248512 77.79550689569069 28.50000581795825
    vertex 70.83474416187194 85.29550716378186 28.500008032052445
    vertex 68.4817916952414 77.71032146141334 28.500005799492104
  endloop
endfacet
facet normal 4.699944138601184e-16 -6.517082270507436e-09 -1.0
  outer loop
    vertex 68.4817916952414 77.71032146141334 28.500005799492104
    vertex 70.83474416187194 85.29550716378186 28.500008032052445
    vertex 69.0847440824851 77.46057040515178 28.500005813844638
  endloop
endfacet
facet normal 4.699944138601184e-16 -6.517082270507436e-09 -1.0
  outer loop
    vertex 69.0847440824851 77.46057040515178 28.500005813844638
    vertex 70.83474416187194 85.29550716378186 28.500008032052445
    vertex 69.60251103545146 77.06327384865706 28.500005860037778
  endloop
endfacet
facet normal 4.699944138601184e-16 -6.517082270507436e-09 -1.0
  outer loop
    vertex 69.60251103545146 77.06327384865706 28.500005860037778
    vertex 70.83474416187194 85.29550716378186 28.500008032052445
    vertex 69.9998075919462 76.54550689569069 28.50000593492351
  endloop
endfacet
facet normal 4.699944138601184e-16 -6.517082270507436e-09 -1.0
  outer loop
    vertex 69.9998075919462 76.54550689569069 28.50000593492351
    vertex 70.83474416187194 85.29550716378186 28.500008032052445
    vertex 70.24955864820777 75.942554508447 28.50000603339851
  endloop
endfacet
facet normal 4.699944138601184e-16 -6.517082270507436e-09 -1.0
  outer loop
    vertex 70.24955864820777 75.942554508447 28.50000603339851
    vertex 70.83474416187194 85.29550716378186 28.500008032052445
    vertex 70.33474408248509 75.29550689569072 28.50000614875187
  endloop
endfacet
facet normal 4.699944138601184e-16 -6.517082270507436e-09 -1.0
  outer loop
    vertex 64.83474416187195 65.29550716378198 28.50000816239408
    vertex 65.66968057302402 74.04550689569079 28.500006627215118
    vertex 70.83474416187194 65.29550716378198 28.500008032052445
  endloop
endfacet
facet normal 4.699944138601184e-16 -6.517082270507436e-09 -1.0
  outer loop
    vertex 65.66968057302402 74.04550689569079 28.500006627215118
    vertex 64.83474416187195 65.29550716378198 28.50000816239408
    vertex 65.41992951676245 74.64845928293447 28.50000652874012
  endloop
endfacet
facet normal 4.699944138601184e-16 -6.517082270507436e-09 -1.0
  outer loop
    vertex 65.41992951676245 74.64845928293447 28.50000652874012
    vertex 64.83474416187195 65.29550716378198 28.50000816239408
    vertex 65.33474408248513 75.29550689569076 28.50000641338676
  endloop
endfacet
facet normal 4.699944138601184e-16 -6.517082270507436e-09 -1.0
  outer loop
    vertex 70.83474416187194 65.29550716378198 28.500008032052445
    vertex 65.66968057302402 74.04550689569079 28.500006627215118
    vertex 66.06697712951876 73.52773994272442 28.50000670210085
  endloop
endfacet
facet normal 4.699944138601184e-16 -6.517082270507436e-09 -1.0
  outer loop
    vertex 70.83474416187194 65.29550716378198 28.500008032052445
    vertex 66.06697712951876 73.52773994272442 28.50000670210085
    vertex 66.58474408248513 73.1304433862297 28.500006748293977
  endloop
endfacet
facet normal 4.699944138601184e-16 -6.517082270507436e-09 -1.0
  outer loop
    vertex 70.83474416187194 65.29550716378198 28.500008032052445
    vertex 66.58474408248513 73.1304433862297 28.500006748293977
    vertex 67.1876964697288 72.88069232996813 28.500006762646525
  endloop
endfacet
facet normal 4.699944138601184e-16 -6.517082270507436e-09 -1.0
  outer loop
    vertex 70.83474416187194 65.29550716378198 28.500008032052445
    vertex 67.1876964697288 72.88069232996813 28.500006762646525
    vertex 67.83474408248512 72.79550689569079 28.50000674418038
  endloop
endfacet
facet normal 4.699944138601184e-16 -6.517082270507436e-09 -1.0
  outer loop
    vertex 70.83474416187194 65.29550716378198 28.500008032052445
    vertex 67.83474408248512 72.79550689569079 28.50000674418038
    vertex 68.48179169524141 72.88069232996813 28.50000669415397
  endloop
endfacet
facet normal 4.699944138601184e-16 -6.517082270507436e-09 -1.0
  outer loop
    vertex 70.83474416187194 65.29550716378198 28.500008032052445
    vertex 68.48179169524141 72.88069232996813 28.50000669415397
    vertex 69.0847440824851 73.13044338622969 28.500006615976538
  endloop
endfacet
facet normal 4.699944138601184e-16 -6.517082270507436e-09 -1.0
  outer loop
    vertex 70.83474416187194 65.29550716378198 28.500008032052445
    vertex 69.0847440824851 73.13044338622969 28.500006615976538
    vertex 69.60251103545147 73.5277399427244 28.500006514975727
  endloop
endfacet
facet normal 4.699944138601184e-16 -6.517082270507436e-09 -1.0
  outer loop
    vertex 70.83474416187194 65.29550716378198 28.500008032052445
    vertex 69.60251103545147 73.5277399427244 28.500006514975727
    vertex 69.9998075919462 74.04550689569075 28.500006398034568
  endloop
endfacet
facet normal 4.699944138601184e-16 -6.517082270507436e-09 -1.0
  outer loop
    vertex 70.83474416187194 65.29550716378198 28.500008032052445
    vertex 69.9998075919462 74.04550689569075 28.500006398034568
    vertex 70.24955864820777 74.64845928293443 28.50000627312244
  endloop
endfacet
facet normal 4.699944138601184e-16 -6.517082270507436e-09 -1.0
  outer loop
    vertex 70.83474416187194 65.29550716378198 28.500008032052445
    vertex 70.24955864820777 74.64845928293443 28.50000627312244
    vertex 70.33474408248509 75.29550689569072 28.50000614875187
  endloop
endfacet
facet normal 4.699944138601184e-16 -6.517082270507436e-09 -1.0
  outer loop
    vertex 70.83474416187194 65.29550716378198 28.500008032052445
    vertex 70.33474408248509 75.29550689569072 28.50000614875187
    vertex 70.83474416187194 85.29550716378186 28.500008032052445
  endloop
endfacet
facet normal -1.0 -6.125984523610623e-24 -4.699944138601184e-16
  outer loop
    vertex 64.83474416187195 65.2955071735576 30.000008162394085
    vertex 64.83474416187195 85.29550716378186 28.5000079017108
    vertex 64.83474416187195 65.29550716378198 28.50000816239408
  endloop
endfacet
facet normal -1.0 -6.125984523610623e-24 -4.699944138601184e-16
  outer loop
    vertex 64.83474416187195 85.29550716378186 28.5000079017108
    vertex 64.83474416187195 65.2955071735576 30.000008162394085
    vertex 64.83474416187195 85.2955071735575 30.000007901710795
  endloop
endfacet
facet normal 1.4157454079819966e-16 1.0 -6.517082270507437e-09
  outer loop
    vertex 64.83474416187195 85.2955071735575 30.000007901710795
    vertex 70.83474416187194 85.29550716378186 28.500008032052445
    vertex 64.83474416187195 85.29550716378186 28.5000079017108
  endloop
endfacet
facet normal 1.4157454079819966e-16 1.0 -6.517082270507437e-09
  outer loop
    vertex 70.83474416187194 85.29550716378186 28.500008032052445
    vertex 64.83474416187195 85.2955071735575 30.000007901710795
    vertex 70.83474416187194 85.2955071735575 30.000008032052442
  endloop
endfacet
facet normal 1.0 0.0 4.699944138601185e-16
  outer loop
    vertex 70.83474416187194 85.29550716378186 28.500008032052445
    vertex 70.83474416187194 65.2955071735576 30.000008032052442
    vertex 70.83474416187194 65.29550716378198 28.500008032052445
  endloop
endfacet
facet normal 1.0 0.0 4.699944138601185e-16
  outer loop
    vertex 70.83474416187194 65.2955071735576 30.000008032052442
    vertex 70.83474416187194 85.29550716378186 28.500008032052445
    vertex 70.83474416187194 85.2955071735575 30.000008032052442
  endloop
endfacet
facet normal -9.81749774123782e-08 -1.9297075951798258e-07 -0.9999999999999767
  outer loop
    vertex 57.834744161875534 105.29550717355671 29.99999970198065
    vertex 64.83474416187195 85.2955071735575 30.000007901710795
    vertex 57.834744161875534 65.2955071735575 30.000007641027498
  endloop
endfacet
facet normal -9.81749774123782e-08 -1.9297075951798258e-07 -0.9999999999999767
  outer loop
    vertex 64.83474416187195 85.2955071735575 30.000007901710795
    vertex 57.834744161875534 105.29550717355671 29.99999970198065
    vertex 77.83474416187553 98.2955071735567 29.99999970198065
  endloop
endfacet
facet normal -9.81749774123782e-08 -1.9297075951798258e-07 -0.9999999999999767
  outer loop
    vertex 77.83474416187553 98.2955071735567 29.99999970198065
    vertex 57.834744161875534 105.29550717355671 29.99999970198065
    vertex 97.83474416187552 105.29550717355671 29.99999970198065
  endloop
endfacet
facet normal -9.81749774123782e-08 -1.9297075951798258e-07 -0.9999999999999767
  outer loop
    vertex 64.83474416187195 85.2955071735575 30.000007901710795
    vertex 77.83474416187553 98.2955071735567 29.99999970198065
    vertex 70.83474416187194 85.2955071735575 30.000008032052442
  endloop
endfacet
facet normal -9.81749774123782e-08 -1.9297075951798258e-07 -0.9999999999999767
  outer loop
    vertex 70.83474416187194 85.2955071735575 30.000008032052442
    vertex 77.83474416187553 98.2955071735567 29.99999970198065
    vertex 70.83474416187194 65.2955071735576 30.000008032052442
  endloop
endfacet
facet normal -9.81749774123782e-08 -1.9297075951798258e-07 -0.9999999999999767
  outer loop
    vertex 70.83474416187194 65.2955071735576 30.000008032052442
    vertex 77.83474416187553 98.2955071735567 29.99999970198065
    vertex 77.83474331027367 65.2955071735575 30.000007641027498
  endloop
endfacet
facet normal -9.81749774123782e-08 -1.9297075951798258e-07 -0.9999999999999767
  outer loop
    vertex 77.83474416187553 98.2955071735567 29.99999970198065
    vertex 97.83474416187552 105.29550717355671 29.99999970198065
    vertex 97.83474416187545 98.2955071735567 29.99999880171373
  endloop
endfacet
facet normal -9.81749774123782e-08 -1.9297075951798258e-07 -0.9999999999999767
  outer loop
    vertex 77.83474331027367 65.2955071735575 30.000007641027498
    vertex 77.83474416187553 92.29550717355671 29.99999970198065
    vertex 97.83474416187552 85.29550717355669 29.99999970198065
  endloop
endfacet
facet normal -9.81749774123782e-08 -1.9297075951798258e-07 -0.9999999999999767
  outer loop
    vertex 77.83474416187553 92.29550717355671 29.99999970198065
    vertex 77.83474331027367 65.2955071735575 30.000007641027498
    vertex 77.83474416187553 98.2955071735567 29.99999970198065
  endloop
endfacet
facet normal -9.81749774123782e-08 -1.9297075951798258e-07 -0.9999999999999767
  outer loop
    vertex 97.83474416187552 85.29550717355669 29.99999970198065
    vertex 77.83474416187553 92.29550717355671 29.99999970198065
    vertex 97.83474416187552 92.29550717355671 29.99999970198065
  endloop
endfacet
facet normal -9.81749774123782e-08 -1.9297075951798258e-07 -0.9999999999999767
  outer loop
    vertex 64.83474416187195 65.2955071735576 30.000008162394085
    vertex 57.834744161875534 65.2955071735575 30.000007641027498
    vertex 64.83474416187195 85.2955071735575 30.000007901710795
  endloop
endfacet
facet normal -2.2506672922029065e-08 -7.502224307343048e-08 -0.9999999999999971
  outer loop
    vertex 77.83474412811569 98.29550706102388 28.50000712428333
    vertex 86.58474408248519 97.46057040515143 28.500001083551155
    vertex 77.83474412811569 92.2955070610239 28.50000712428333
  endloop
endfacet
facet normal -2.2506672922029065e-08 -7.502224307343048e-08 -0.9999999999999971
  outer loop
    vertex 86.58474408248519 97.46057040515143 28.500001083551155
    vertex 77.83474412811569 98.29550706102388 28.50000712428333
    vertex 87.18769646972889 97.71032146141299 28.500001005373715
  endloop
endfacet
facet normal -2.2506672922029065e-08 -7.502224307343048e-08 -0.9999999999999971
  outer loop
    vertex 87.18769646972889 97.71032146141299 28.500001005373715
    vertex 77.83474412811569 98.29550706102388 28.50000712428333
    vertex 87.83474408248519 97.79550689569031 28.500000955347314
  endloop
endfacet
facet normal -2.2506672922029065e-08 -7.502224307343048e-08 -0.9999999999999971
  outer loop
    vertex 87.83474408248519 97.79550689569031 28.500000955347314
    vertex 77.83474412811569 98.29550706102388 28.50000712428333
    vertex 97.83474412811562 98.29550706102388 28.500006224016406
  endloop
endfacet
facet normal -2.2506672922029065e-08 -7.502224307343048e-08 -0.9999999999999971
  outer loop
    vertex 77.83474412811569 92.2955070610239 28.50000712428333
    vertex 86.58474408248519 97.46057040515143 28.500001083551155
    vertex 86.06697712951882 97.0632738486567 28.500001184551966
  endloop
endfacet
facet normal -2.2506672922029065e-08 -7.502224307343048e-08 -0.9999999999999971
  outer loop
    vertex 77.83474412811569 92.2955070610239 28.50000712428333
    vertex 86.06697712951882 97.0632738486567 28.500001184551966
    vertex 85.66968057302411 96.54550689569035 28.500001301493118
  endloop
endfacet
facet normal -2.2506672922029065e-08 -7.502224307343048e-08 -0.9999999999999971
  outer loop
    vertex 77.83474412811569 92.2955070610239 28.50000712428333
    vertex 85.66968057302411 96.54550689569035 28.500001301493118
    vertex 85.41992951676254 95.94255450844668 28.50000142640525
  endloop
endfacet
facet normal -2.2506672922029065e-08 -7.502224307343048e-08 -0.9999999999999971
  outer loop
    vertex 77.83474412811569 92.2955070610239 28.50000712428333
    vertex 85.41992951676254 95.94255450844668 28.50000142640525
    vertex 85.3347440824852 95.2955068956904 28.500001550775824
  endloop
endfacet
facet normal -2.2506672922029065e-08 -7.502224307343048e-08 -0.9999999999999971
  outer loop
    vertex 87.83474408248519 97.79550689569031 28.500000955347314
    vertex 97.83474412811562 98.29550706102388 28.500006224016406
    vertex 88.48179169524148 97.71032146141297 28.500000936881168
  endloop
endfacet
facet normal -2.2506672922029065e-08 -7.502224307343048e-08 -0.9999999999999971
  outer loop
    vertex 88.48179169524148 97.71032146141297 28.500000936881168
    vertex 97.83474412811562 98.29550706102388 28.500006224016406
    vertex 89.08474408248517 97.4605704051514 28.50000095123371
  endloop
endfacet
facet normal -2.2506672922029065e-08 -7.502224307343048e-08 -0.9999999999999971
  outer loop
    vertex 89.08474408248517 97.4605704051514 28.50000095123371
    vertex 97.83474412811562 98.29550706102388 28.500006224016406
    vertex 89.60251103545154 97.06327384865668 28.50000099742684
  endloop
endfacet
facet normal -2.2506672922029065e-08 -7.502224307343048e-08 -0.9999999999999971
  outer loop
    vertex 89.60251103545154 97.06327384865668 28.50000099742684
    vertex 97.83474412811562 98.29550706102388 28.500006224016406
    vertex 89.99980759194627 96.54550689569032 28.500001072312575
  endloop
endfacet
facet normal -2.2506672922029065e-08 -7.502224307343048e-08 -0.9999999999999971
  outer loop
    vertex 89.99980759194627 96.54550689569032 28.500001072312575
    vertex 97.83474412811562 98.29550706102388 28.500006224016406
    vertex 90.24955864820784 95.94255450844663 28.500001170787574
  endloop
endfacet
facet normal -2.2506672922029065e-08 -7.502224307343048e-08 -0.9999999999999971
  outer loop
    vertex 90.24955864820784 95.94255450844663 28.500001170787574
    vertex 97.83474412811562 98.29550706102388 28.500006224016406
    vertex 90.33474408248517 95.29550689569034 28.500001286140932
  endloop
endfacet
facet normal -2.2506672922029065e-08 -7.502224307343048e-08 -0.9999999999999971
  outer loop
    vertex 77.83474412811569 92.2955070610239 28.50000712428333
    vertex 87.83474408248519 92.79550689569041 28.500001881569442
    vertex 97.83474412811569 92.2955070610239 28.50000712428333
  endloop
endfacet
facet normal -2.2506672922029065e-08 -7.502224307343048e-08 -0.9999999999999971
  outer loop
    vertex 87.83474408248519 92.79550689569041 28.500001881569442
    vertex 77.83474412811569 92.2955070610239 28.50000712428333
    vertex 87.18769646972889 92.88069232996776 28.50000190003559
  endloop
endfacet
facet normal -2.2506672922029065e-08 -7.502224307343048e-08 -0.9999999999999971
  outer loop
    vertex 87.18769646972889 92.88069232996776 28.50000190003559
    vertex 77.83474412811569 92.2955070610239 28.50000712428333
    vertex 86.5847440824852 93.13044338622933 28.500001885683048
  endloop
endfacet
facet normal -2.2506672922029065e-08 -7.502224307343048e-08 -0.9999999999999971
  outer loop
    vertex 86.5847440824852 93.13044338622933 28.500001885683048
    vertex 77.83474412811569 92.2955070610239 28.50000712428333
    vertex 86.06697712951883 93.52773994272405 28.500001839489915
  endloop
endfacet
facet normal -2.2506672922029065e-08 -7.502224307343048e-08 -0.9999999999999971
  outer loop
    vertex 86.06697712951883 93.52773994272405 28.500001839489915
    vertex 77.83474412811569 92.2955070610239 28.50000712428333
    vertex 85.66968057302411 94.04550689569041 28.500001764604182
  endloop
endfacet
facet normal -2.2506672922029065e-08 -7.502224307343048e-08 -0.9999999999999971
  outer loop
    vertex 85.66968057302411 94.04550689569041 28.500001764604182
    vertex 77.83474412811569 92.2955070610239 28.50000712428333
    vertex 85.41992951676254 94.6484592829341 28.500001666129183
  endloop
endfacet
facet normal -2.2506672922029065e-08 -7.502224307343048e-08 -0.9999999999999971
  outer loop
    vertex 85.41992951676254 94.6484592829341 28.500001666129183
    vertex 77.83474412811569 92.2955070610239 28.50000712428333
    vertex 85.3347440824852 95.2955068956904 28.500001550775824
  endloop
endfacet
facet normal -2.2506672922029065e-08 -7.502224307343048e-08 -0.9999999999999971
  outer loop
    vertex 97.83474412811569 92.2955070610239 28.50000712428333
    vertex 87.83474408248519 92.79550689569041 28.500001881569442
    vertex 88.48179169524148 92.88069232996774 28.50000183154304
  endloop
endfacet
facet normal -2.2506672922029065e-08 -7.502224307343048e-08 -0.9999999999999971
  outer loop
    vertex 97.83474412811569 92.2955070610239 28.50000712428333
    vertex 88.48179169524148 92.88069232996774 28.50000183154304
    vertex 89.08474408248519 93.1304433862293 28.500001753365602
  endloop
endfacet
facet normal -2.2506672922029065e-08 -7.502224307343048e-08 -0.9999999999999971
  outer loop
    vertex 97.83474412811569 92.2955070610239 28.50000712428333
    vertex 89.08474408248519 93.1304433862293 28.500001753365602
    vertex 89.60251103545154 93.52773994272401 28.50000165236479
  endloop
endfacet
facet normal -2.2506672922029065e-08 -7.502224307343048e-08 -0.9999999999999971
  outer loop
    vertex 97.83474412811569 92.2955070610239 28.50000712428333
    vertex 89.60251103545154 93.52773994272401 28.50000165236479
    vertex 89.99980759194627 94.04550689569038 28.50000153542364
  endloop
endfacet
facet normal -2.2506672922029065e-08 -7.502224307343048e-08 -0.9999999999999971
  outer loop
    vertex 97.83474412811569 92.2955070610239 28.50000712428333
    vertex 89.99980759194627 94.04550689569038 28.50000153542364
    vertex 90.24955864820784 94.64845928293406 28.500001410511505
  endloop
endfacet
facet normal -2.2506672922029065e-08 -7.502224307343048e-08 -0.9999999999999971
  outer loop
    vertex 97.83474412811569 92.2955070610239 28.50000712428333
    vertex 90.24955864820784 94.64845928293406 28.500001410511505
    vertex 90.33474408248517 95.29550689569034 28.500001286140932
  endloop
endfacet
facet normal -2.2506672922029065e-08 -7.502224307343048e-08 -0.9999999999999971
  outer loop
    vertex 97.83474412811569 92.2955070610239 28.50000712428333
    vertex 90.33474408248517 95.29550689569034 28.500001286140932
    vertex 97.83474412811562 98.29550706102388 28.500006224016406
  endloop
endfacet
facet normal 0.0 -0.9999999999999972 7.502224307343048e-08
  outer loop
    vertex 97.83474416187552 92.29550717355671 29.99999970198065
    vertex 77.83474412811569 92.2955070610239 28.50000712428333
    vertex 97.83474412811569 92.2955070610239 28.50000712428333
  endloop
endfacet
facet normal 0.0 -0.9999999999999972 7.502224307343048e-08
  outer loop
    vertex 77.83474412811569 92.2955070610239 28.50000712428333
    vertex 97.83474416187552 92.29550717355671 29.99999970198065
    vertex 77.83474416187553 92.29550717355671 29.99999970198065
  endloop
endfacet
facet normal -0.9999999999999998 0.0 2.2506672922029124e-08
  outer loop
    vertex 77.83474416187553 92.29550717355671 29.99999970198065
    vertex 77.83474412811569 98.29550706102388 28.50000712428333
    vertex 77.83474412811569 92.2955070610239 28.50000712428333
  endloop
endfacet
facet normal -0.9999999999999998 0.0 2.2506672922029124e-08
  outer loop
    vertex 77.83474412811569 98.29550706102388 28.50000712428333
    vertex 77.83474416187553 92.29550717355671 29.99999970198065
    vertex 77.83474416187553 98.2955071735567 29.99999970198065
  endloop
endfacet
facet normal -3.3770021734613405e-15 0.9999999999999972 -7.502224307343041e-08
  outer loop
    vertex 77.83474412811569 98.29550706102388 28.50000712428333
    vertex 97.83474416187545 98.2955071735567 29.99999880171373
    vertex 97.83474412811562 98.29550706102388 28.500006224016406
  endloop
endfacet
facet normal -3.3770021734613405e-15 0.9999999999999972 -7.502224307343041e-08
  outer loop
    vertex 97.83474416187545 98.2955071735567 29.99999880171373
    vertex 77.83474412811569 98.29550706102388 28.50000712428333
    vertex 77.83474416187553 98.2955071735567 29.99999970198065
  endloop
endfacet
facet normal -0.9914448613738085 0.13052619222006365 2.8294931450649027e-08
  outer loop
    vertex 70.2495589393061 74.64846030177857 34.000005169722044
    vertex 70.33474408248509 75.29550689569072 28.50000614875187
    vertex 70.24955864820777 74.64845928293443 28.50000627312244
  endloop
endfacet
facet normal -0.9914448613738085 0.13052619222006365 2.8294931450649027e-08
  outer loop
    vertex 70.33474408248509 75.29550689569072 28.50000614875187
    vertex 70.2495589393061 74.64846030177857 34.000005169722044
    vertex 70.33474437358343 75.29550791453487 34.00000504535147
  endloop
endfacet
facet normal -0.9914448613738085 -0.13052619222004455 7.665343047934765e-08
  outer loop
    vertex 70.33474437358343 75.29550791453487 34.00000504535147
    vertex 70.24955864820777 75.942554508447 28.50000603339851
    vertex 70.33474408248509 75.29550689569072 28.50000614875187
  endloop
endfacet
facet normal -0.9914448613738085 -0.13052619222004455 7.665343047934765e-08
  outer loop
    vertex 70.24955864820777 75.942554508447 28.50000603339851
    vertex 70.33474437358343 75.29550791453487 34.00000504535147
    vertex 70.2495589393061 75.94255552729115 34.00000492999811
  endloop
endfacet
facet normal -0.9238795325112874 -0.3826834323650696 1.197881248966587e-07
  outer loop
    vertex 70.2495589393061 75.94255552729115 34.00000492999811
    vertex 69.9998075919462 76.54550689569069 28.50000593492351
    vertex 70.24955864820777 75.942554508447 28.50000603339851
  endloop
endfacet
facet normal -0.9238795325112874 -0.3826834323650696 1.197881248966587e-07
  outer loop
    vertex 69.9998075919462 76.54550689569069 28.50000593492351
    vertex 70.2495589393061 75.94255552729115 34.00000492999811
    vertex 69.99980788304453 76.54550791453484 34.000004831523114
  endloop
endfacet
facet normal -0.79335334029123 -0.6087614290087079 1.5475945656150177e-07
  outer loop
    vertex 69.99980788304453 76.54550791453484 34.000004831523114
    vertex 69.60251103545146 77.06327384865706 28.500005860037778
    vertex 69.9998075919462 76.54550689569069 28.50000593492351
  endloop
endfacet
facet normal -0.79335334029123 -0.6087614290087079 1.5475945656150177e-07
  outer loop
    vertex 69.60251103545146 77.06327384865706 28.500005860037778
    vertex 69.99980788304453 76.54550791453484 34.000004831523114
    vertex 69.6025113265498 77.0632748675012 34.00000475663738
  endloop
endfacet
facet normal -0.6087614290087187 -0.7933533402912166 1.7918418701377076e-07
  outer loop
    vertex 69.60251103545146 77.06327384865706 28.500005860037778
    vertex 69.08474437358343 77.46057142399593 34.000004710444244
    vertex 69.0847440824851 77.46057040515178 28.500005813844638
  endloop
endfacet
facet normal -0.6087614290087187 -0.7933533402912166 1.7918418701377076e-07
  outer loop
    vertex 69.08474437358343 77.46057142399593 34.000004710444244
    vertex 69.60251103545146 77.06327384865706 28.500005860037778
    vertex 69.6025113265498 77.0632748675012 34.00000475663738
  endloop
endfacet
facet normal -0.38268343236507973 -0.9238795325112711 1.9139781123692185e-07
  outer loop
    vertex 69.0847440824851 77.46057040515178 28.500005813844638
    vertex 68.48179198633974 77.71032248025749 34.00000469609171
    vertex 68.4817916952414 77.71032146141334 28.500005799492104
  endloop
endfacet
facet normal -0.38268343236507973 -0.9238795325112711 1.9139781123692185e-07
  outer loop
    vertex 68.48179198633974 77.71032248025749 34.00000469609171
    vertex 69.0847440824851 77.46057040515178 28.500005813844638
    vertex 69.08474437358343 77.46057142399593 34.000004710444244
  endloop
endfacet
facet normal -0.1305261922200676 -0.99144486137379 1.9056799092411518e-07
  outer loop
    vertex 68.48179198633974 77.71032248025749 34.00000469609171
    vertex 67.83474408248512 77.79550689569069 28.50000581795825
    vertex 68.4817916952414 77.71032146141334 28.500005799492104
  endloop
endfacet
facet normal -0.1305261922200676 -0.99144486137379 1.9056799092411518e-07
  outer loop
    vertex 67.83474408248512 77.79550689569069 28.50000581795825
    vertex 68.48179198633974 77.71032248025749 34.00000469609171
    vertex 67.83474437358345 77.79550791453484 34.00000471455785
  endloop
endfacet
facet normal 0.1305261922200675 -0.9914448613737926 1.767512769583234e-07
  outer loop
    vertex 67.83474437358345 77.79550791453484 34.00000471455785
    vertex 67.1876964697288 77.71032146141336 28.500005867984644
    vertex 67.83474408248512 77.79550689569069 28.50000581795825
  endloop
endfacet
facet normal 0.1305261922200675 -0.9914448613737926 1.767512769583234e-07
  outer loop
    vertex 67.1876964697288 77.71032146141336 28.500005867984644
    vertex 67.83474437358345 77.79550791453484 34.00000471455785
    vertex 67.18769676082715 77.7103224802575 34.000004764584254
  endloop
endfacet
facet normal 0.3826834323650805 -0.9238795325112783 1.5088925556312184e-07
  outer loop
    vertex 67.18769676082715 77.7103224802575 34.000004764584254
    vertex 66.58474408248512 77.4605704051518 28.50000594616209
    vertex 67.1876964697288 77.71032146141336 28.500005867984644
  endloop
endfacet
facet normal 0.3826834323650805 -0.9238795325112783 1.5088925556312184e-07
  outer loop
    vertex 66.58474408248512 77.4605704051518 28.50000594616209
    vertex 67.18769676082715 77.7103224802575 34.000004764584254
    vertex 66.58474437358345 77.46057142399594 34.00000484276169
  endloop
endfacet
facet normal 0.6087614290087283 -0.793353340291221 1.147443807575732e-07
  outer loop
    vertex 66.58474437358345 77.46057142399594 34.00000484276169
    vertex 66.06697712951875 77.06327384865708 28.500006047162902
    vertex 66.58474408248512 77.4605704051518 28.50000594616209
  endloop
endfacet
facet normal 0.6087614290087283 -0.793353340291221 1.147443807575732e-07
  outer loop
    vertex 66.06697712951875 77.06327384865708 28.500006047162902
    vertex 66.58474437358345 77.46057142399594 34.00000484276169
    vertex 66.06697742061709 77.06327486750122 34.000004943762505
  endloop
endfacet
facet normal 0.7933533402912364 -0.6087614290087151 7.077986602745461e-08
  outer loop
    vertex 66.06697712951875 77.06327384865708 28.500006047162902
    vertex 65.66968086412237 76.54550791453487 34.00000506070366
    vertex 65.66968057302402 76.54550689569072 28.500006164104047
  endloop
endfacet
facet normal 0.7933533402912364 -0.6087614290087151 7.077986602745461e-08
  outer loop
    vertex 65.66968086412237 76.54550791453487 34.00000506070366
    vertex 66.06697712951875 77.06327384865708 28.500006047162902
    vertex 66.06697742061709 77.06327486750122 34.000004943762505
  endloop
endfacet
facet normal 0.923879532511286 -0.38268343236509106 2.1991820396823413e-08
  outer loop
    vertex 65.66968057302402 76.54550689569072 28.500006164104047
    vertex 65.4199298078608 75.94255552729119 34.00000518561579
    vertex 65.41992951676245 75.94255450844706 28.500006289016188
  endloop
endfacet
facet normal 0.923879532511286 -0.38268343236509106 2.1991820396823413e-08
  outer loop
    vertex 65.4199298078608 75.94255552729119 34.00000518561579
    vertex 65.66968057302402 76.54550689569072 28.500006164104047
    vertex 65.66968086412237 76.54550791453487 34.00000506070366
  endloop
endfacet
facet normal 0.9914448613738085 -0.13052619222006365 -2.8294931450649027e-08
  outer loop
    vertex 65.41992951676245 75.94255450844706 28.500006289016188
    vertex 65.33474437358346 75.29550791453491 34.00000530998636
    vertex 65.33474408248513 75.29550689569076 28.50000641338676
  endloop
endfacet
facet normal 0.9914448613738085 -0.13052619222006365 -2.8294931450649027e-08
  outer loop
    vertex 65.33474437358346 75.29550791453491 34.00000530998636
    vertex 65.41992951676245 75.94255450844706 28.500006289016188
    vertex 65.4199298078608 75.94255552729119 34.00000518561579
  endloop
endfacet
facet normal 0.9914448613738085 0.13052619222004455 -7.665343047934765e-08
  outer loop
    vertex 65.33474408248513 75.29550689569076 28.50000641338676
    vertex 65.4199298078608 74.64846030177861 34.00000542533972
    vertex 65.41992951676245 74.64845928293447 28.50000652874012
  endloop
endfacet
facet normal 0.9914448613738085 0.13052619222004455 -7.665343047934765e-08
  outer loop
    vertex 65.4199298078608 74.64846030177861 34.00000542533972
    vertex 65.33474408248513 75.29550689569076 28.50000641338676
    vertex 65.33474437358346 75.29550791453491 34.00000530998636
  endloop
endfacet
facet normal 0.9238795325112874 0.3826834323650696 -1.197881248966587e-07
  outer loop
    vertex 65.41992951676245 74.64845928293447 28.50000652874012
    vertex 65.66968086412237 74.04550791453494 34.00000552381472
    vertex 65.66968057302402 74.04550689569079 28.500006627215118
  endloop
endfacet
facet normal 0.9238795325112874 0.3826834323650696 -1.197881248966587e-07
  outer loop
    vertex 65.66968086412237 74.04550791453494 34.00000552381472
    vertex 65.41992951676245 74.64845928293447 28.50000652874012
    vertex 65.4199298078608 74.64846030177861 34.00000542533972
  endloop
endfacet
facet normal 0.79335334029123 0.6087614290087079 -1.5475945656150177e-07
  outer loop
    vertex 65.66968057302402 74.04550689569079 28.500006627215118
    vertex 66.06697742061709 73.52774096156857 34.000005598700454
    vertex 66.06697712951876 73.52773994272442 28.50000670210085
  endloop
endfacet
facet normal 0.79335334029123 0.6087614290087079 -1.5475945656150177e-07
  outer loop
    vertex 66.06697742061709 73.52774096156857 34.000005598700454
    vertex 65.66968057302402 74.04550689569079 28.500006627215118
    vertex 65.66968086412237 74.04550791453494 34.00000552381472
  endloop
endfacet
facet normal 0.6087614290087187 0.7933533402912166 -1.7918418701377076e-07
  outer loop
    vertex 66.06697742061709 73.52774096156857 34.000005598700454
    vertex 66.58474408248513 73.1304433862297 28.500006748293977
    vertex 66.06697712951876 73.52773994272442 28.50000670210085
  endloop
endfacet
facet normal 0.6087614290087187 0.7933533402912166 -1.7918418701377076e-07
  outer loop
    vertex 66.58474408248513 73.1304433862297 28.500006748293977
    vertex 66.06697742061709 73.52774096156857 34.000005598700454
    vertex 66.58474437358346 73.13044440507385 34.000005644893584
  endloop
endfacet
facet normal 0.38268343236508584 0.9238795325112685 -1.9139781123692171e-07
  outer loop
    vertex 66.58474437358346 73.13044440507385 34.000005644893584
    vertex 67.1876964697288 72.88069232996813 28.500006762646525
    vertex 66.58474408248513 73.1304433862297 28.500006748293977
  endloop
endfacet
facet normal 0.38268343236508584 0.9238795325112685 -1.9139781123692171e-07
  outer loop
    vertex 67.1876964697288 72.88069232996813 28.500006762646525
    vertex 66.58474437358346 73.13044440507385 34.000005644893584
    vertex 67.18769676082715 72.88069334881227 34.00000565924613
  endloop
endfacet
facet normal 0.1305261922200654 0.9914448613737904 -1.9056799092411512e-07
  outer loop
    vertex 67.1876964697288 72.88069232996813 28.500006762646525
    vertex 67.83474437358345 72.79550791453494 34.00000564077998
    vertex 67.83474408248512 72.79550689569079 28.50000674418038
  endloop
endfacet
facet normal 0.1305261922200654 0.9914448613737904 -1.9056799092411512e-07
  outer loop
    vertex 67.83474437358345 72.79550791453494 34.00000564077998
    vertex 67.1876964697288 72.88069232996813 28.500006762646525
    vertex 67.18769676082715 72.88069334881227 34.00000565924613
  endloop
endfacet
facet normal -0.1305261922200675 0.9914448613737926 -1.767512769583234e-07
  outer loop
    vertex 67.83474408248512 72.79550689569079 28.50000674418038
    vertex 68.48179198633974 72.88069334881227 34.00000559075358
    vertex 68.48179169524141 72.88069232996813 28.50000669415397
  endloop
endfacet
facet normal -0.1305261922200675 0.9914448613737926 -1.767512769583234e-07
  outer loop
    vertex 68.48179198633974 72.88069334881227 34.00000559075358
    vertex 67.83474408248512 72.79550689569079 28.50000674418038
    vertex 67.83474437358345 72.79550791453494 34.00000564077998
  endloop
endfacet
facet normal -0.3826834323650805 0.9238795325112783 -1.5088925556312184e-07
  outer loop
    vertex 68.48179169524141 72.88069232996813 28.50000669415397
    vertex 69.08474437358345 73.13044440507382 34.00000551257614
    vertex 69.0847440824851 73.13044338622969 28.500006615976538
  endloop
endfacet
facet normal -0.3826834323650805 0.9238795325112783 -1.5088925556312184e-07
  outer loop
    vertex 69.08474437358345 73.13044440507382 34.00000551257614
    vertex 68.48179169524141 72.88069232996813 28.50000669415397
    vertex 68.48179198633974 72.88069334881227 34.00000559075358
  endloop
endfacet
facet normal -0.6087614290087175 0.7933533402912294 -1.1474438075757534e-07
  outer loop
    vertex 69.0847440824851 73.13044338622969 28.500006615976538
    vertex 69.60251132654982 73.52774096156854 34.00000541157533
    vertex 69.60251103545147 73.5277399427244 28.500006514975727
  endloop
endfacet
facet normal -0.6087614290087175 0.7933533402912294 -1.1474438075757534e-07
  outer loop
    vertex 69.60251132654982 73.52774096156854 34.00000541157533
    vertex 69.0847440824851 73.13044338622969 28.500006615976538
    vertex 69.08474437358345 73.13044440507382 34.00000551257614
  endloop
endfacet
facet normal -0.7933533402912426 0.6087614290087067 -7.077986602745271e-08
  outer loop
    vertex 69.60251132654982 73.52774096156854 34.00000541157533
    vertex 69.9998075919462 74.04550689569075 28.500006398034568
    vertex 69.60251103545147 73.5277399427244 28.500006514975727
  endloop
endfacet
facet normal -0.7933533402912426 0.6087614290087067 -7.077986602745271e-08
  outer loop
    vertex 69.9998075919462 74.04550689569075 28.500006398034568
    vertex 69.60251132654982 73.52774096156854 34.00000541157533
    vertex 69.99980788304453 74.0455079145349 34.00000529463418
  endloop
endfacet
facet normal -0.923879532511286 0.38268343236509106 -2.1991820396823413e-08
  outer loop
    vertex 69.99980788304453 74.0455079145349 34.00000529463418
    vertex 70.24955864820777 74.64845928293443 28.50000627312244
    vertex 69.9998075919462 74.04550689569075 28.500006398034568
  endloop
endfacet
facet normal -0.923879532511286 0.38268343236509106 -2.1991820396823413e-08
  outer loop
    vertex 70.24955864820777 74.64845928293443 28.50000627312244
    vertex 69.99980788304453 74.0455079145349 34.00000529463418
    vertex 70.2495589393061 74.64846030177857 34.000005169722044
  endloop
endfacet
facet normal -0.9914448613738085 -0.13052619222004455 7.665343047934766e-08
  outer loop
    vertex 90.33474437358343 95.2955079145344 33.999999569663125
    vertex 90.24955864820784 95.94255450844663 28.500001170787574
    vertex 90.33474408248517 95.29550689569034 28.500001286140932
  endloop
endfacet
facet normal -0.9914448613738085 -0.13052619222004455 7.665343047934766e-08
  outer loop
    vertex 90.24955864820784 95.94255450844663 28.500001170787574
    vertex 90.33474437358343 95.2955079145344 33.999999569663125
    vertex 90.2495589393061 95.9425555272907 33.999999454309766
  endloop
endfacet
facet normal -0.9238795325112874 -0.3826834323650696 1.1978812489665872e-07
  outer loop
    vertex 90.2495589393061 95.9425555272907 33.999999454309766
    vertex 89.99980759194627 96.54550689569032 28.500001072312575
    vertex 90.24955864820784 95.94255450844663 28.500001170787574
  endloop
endfacet
facet normal -0.9238795325112874 -0.3826834323650696 1.1978812489665872e-07
  outer loop
    vertex 89.99980759194627 96.54550689569032 28.500001072312575
    vertex 90.2495589393061 95.9425555272907 33.999999454309766
    vertex 89.99980788304453 96.54550791453437 33.99999935583477
  endloop
endfacet
facet normal -0.79335334029123 -0.6087614290087079 1.5475945656150185e-07
  outer loop
    vertex 89.99980788304453 96.54550791453437 33.99999935583477
    vertex 89.60251103545154 97.06327384865668 28.50000099742684
    vertex 89.99980759194627 96.54550689569032 28.500001072312575
  endloop
endfacet
facet normal -0.79335334029123 -0.6087614290087079 1.5475945656150185e-07
  outer loop
    vertex 89.60251103545154 97.06327384865668 28.50000099742684
    vertex 89.99980788304453 96.54550791453437 33.99999935583477
    vertex 89.6025113265498 97.06327486750074 33.999999280949034
  endloop
endfacet
facet normal -0.6087614290087187 -0.7933533402912166 1.7918418701377079e-07
  outer loop
    vertex 89.60251103545154 97.06327384865668 28.50000099742684
    vertex 89.08474437358343 97.46057142399546 33.999999234755904
    vertex 89.08474408248517 97.4605704051514 28.50000095123371
  endloop
endfacet
facet normal -0.6087614290087187 -0.7933533402912166 1.7918418701377079e-07
  outer loop
    vertex 89.08474437358343 97.46057142399546 33.999999234755904
    vertex 89.60251103545154 97.06327384865668 28.50000099742684
    vertex 89.6025113265498 97.06327486750074 33.999999280949034
  endloop
endfacet
facet normal -0.38268343236507973 -0.9238795325112711 1.913978112369219e-07
  outer loop
    vertex 89.08474408248517 97.4605704051514 28.50000095123371
    vertex 88.48179198633973 97.71032248025702 33.99999922040336
    vertex 88.48179169524148 97.71032146141297 28.500000936881168
  endloop
endfacet
facet normal -0.38268343236507973 -0.9238795325112711 1.913978112369219e-07
  outer loop
    vertex 88.48179198633973 97.71032248025702 33.99999922040336
    vertex 89.08474408248517 97.4605704051514 28.50000095123371
    vertex 89.08474437358343 97.46057142399546 33.999999234755904
  endloop
endfacet
facet normal -0.1305261922200676 -0.99144486137379 1.905679909241152e-07
  outer loop
    vertex 88.48179198633973 97.71032248025702 33.99999922040336
    vertex 87.83474408248519 97.79550689569031 28.500000955347314
    vertex 88.48179169524148 97.71032146141297 28.500000936881168
  endloop
endfacet
facet normal -0.1305261922200676 -0.99144486137379 1.905679909241152e-07
  outer loop
    vertex 87.83474408248519 97.79550689569031 28.500000955347314
    vertex 88.48179198633973 97.71032248025702 33.99999922040336
    vertex 87.83474437358345 97.79550791453437 33.999999238869506
  endloop
endfacet
facet normal 0.1305261922200675 -0.9914448613737926 1.7675127695832348e-07
  outer loop
    vertex 87.83474437358345 97.79550791453437 33.999999238869506
    vertex 87.18769646972889 97.71032146141299 28.500001005373715
    vertex 87.83474408248519 97.79550689569031 28.500000955347314
  endloop
endfacet
facet normal 0.1305261922200675 -0.9914448613737926 1.7675127695832348e-07
  outer loop
    vertex 87.18769646972889 97.71032146141299 28.500001005373715
    vertex 87.83474437358345 97.79550791453437 33.999999238869506
    vertex 87.18769676082715 97.71032248025703 33.99999928889591
  endloop
endfacet
facet normal 0.3826834323650805 -0.9238795325112783 1.508892555631219e-07
  outer loop
    vertex 87.18769676082715 97.71032248025703 33.99999928889591
    vertex 86.58474408248519 97.46057040515143 28.500001083551155
    vertex 87.18769646972889 97.71032146141299 28.500001005373715
  endloop
endfacet
facet normal 0.3826834323650805 -0.9238795325112783 1.508892555631219e-07
  outer loop
    vertex 86.58474408248519 97.46057040515143 28.500001083551155
    vertex 87.18769676082715 97.71032248025703 33.99999928889591
    vertex 86.58474437358345 97.46057142399548 33.99999936707335
  endloop
endfacet
facet normal 0.6087614290087283 -0.793353340291221 1.1474438075757322e-07
  outer loop
    vertex 86.58474437358345 97.46057142399548 33.99999936707335
    vertex 86.06697712951882 97.0632738486567 28.500001184551966
    vertex 86.58474408248519 97.46057040515143 28.500001083551155
  endloop
endfacet
facet normal 0.6087614290087283 -0.793353340291221 1.1474438075757322e-07
  outer loop
    vertex 86.06697712951882 97.0632738486567 28.500001184551966
    vertex 86.58474437358345 97.46057142399548 33.99999936707335
    vertex 86.06697742061708 97.06327486750077 33.99999946807416
  endloop
endfacet
facet normal 0.7933533402912364 -0.6087614290087151 7.077986602745462e-08
  outer loop
    vertex 86.06697712951882 97.0632738486567 28.500001184551966
    vertex 85.66968086412236 96.54550791453441 33.99999958501531
    vertex 85.66968057302411 96.54550689569035 28.500001301493118
  endloop
endfacet
facet normal 0.7933533402912364 -0.6087614290087151 7.077986602745462e-08
  outer loop
    vertex 85.66968086412236 96.54550791453441 33.99999958501531
    vertex 86.06697712951882 97.0632738486567 28.500001184551966
    vertex 86.06697742061708 97.06327486750077 33.99999946807416
  endloop
endfacet
facet normal 0.923879532511286 -0.38268343236509106 2.1991820396823413e-08
  outer loop
    vertex 85.66968057302411 96.54550689569035 28.500001301493118
    vertex 85.4199298078608 95.94255552729074 33.999999709927444
    vertex 85.41992951676254 95.94255450844668 28.50000142640525
  endloop
endfacet
facet normal 0.923879532511286 -0.38268343236509106 2.1991820396823413e-08
  outer loop
    vertex 85.4199298078608 95.94255552729074 33.999999709927444
    vertex 85.66968057302411 96.54550689569035 28.500001301493118
    vertex 85.66968086412236 96.54550791453441 33.99999958501531
  endloop
endfacet
facet normal 0.9914448613738085 -0.13052619222006365 -2.8294931450649037e-08
  outer loop
    vertex 85.41992951676254 95.94255450844668 28.50000142640525
    vertex 85.33474437358346 95.29550791453444 33.999999834298016
    vertex 85.3347440824852 95.2955068956904 28.500001550775824
  endloop
endfacet
facet normal 0.9914448613738085 -0.13052619222006365 -2.8294931450649037e-08
  outer loop
    vertex 85.33474437358346 95.29550791453444 33.999999834298016
    vertex 85.41992951676254 95.94255450844668 28.50000142640525
    vertex 85.4199298078608 95.94255552729074 33.999999709927444
  endloop
endfacet
facet normal 0.9914448613738085 0.13052619222004455 -7.665343047934766e-08
  outer loop
    vertex 85.3347440824852 95.2955068956904 28.500001550775824
    vertex 85.4199298078608 94.64846030177816 33.999999949651375
    vertex 85.41992951676254 94.6484592829341 28.500001666129183
  endloop
endfacet
facet normal 0.9914448613738085 0.13052619222004455 -7.665343047934766e-08
  outer loop
    vertex 85.4199298078608 94.64846030177816 33.999999949651375
    vertex 85.3347440824852 95.2955068956904 28.500001550775824
    vertex 85.33474437358346 95.29550791453444 33.999999834298016
  endloop
endfacet
facet normal 0.9238795325112874 0.3826834323650696 -1.1978812489665872e-07
  outer loop
    vertex 85.41992951676254 94.6484592829341 28.500001666129183
    vertex 85.66968086412236 94.04550791453447 34.000000048126374
    vertex 85.66968057302411 94.04550689569041 28.500001764604182
  endloop
endfacet
facet normal 0.9238795325112874 0.3826834323650696 -1.1978812489665872e-07
  outer loop
    vertex 85.66968086412236 94.04550791453447 34.000000048126374
    vertex 85.41992951676254 94.6484592829341 28.500001666129183
    vertex 85.4199298078608 94.64846030177816 33.999999949651375
  endloop
endfacet
facet normal 0.79335334029123 0.6087614290087079 -1.5475945656150185e-07
  outer loop
    vertex 85.66968057302411 94.04550689569041 28.500001764604182
    vertex 86.06697742061709 93.5277409615681 34.00000012301211
    vertex 86.06697712951883 93.52773994272405 28.500001839489915
  endloop
endfacet
facet normal 0.79335334029123 0.6087614290087079 -1.5475945656150185e-07
  outer loop
    vertex 86.06697742061709 93.5277409615681 34.00000012301211
    vertex 85.66968057302411 94.04550689569041 28.500001764604182
    vertex 85.66968086412236 94.04550791453447 34.000000048126374
  endloop
endfacet
facet normal 0.6087614290087187 0.7933533402912166 -1.7918418701377079e-07
  outer loop
    vertex 86.06697742061709 93.5277409615681 34.00000012301211
    vertex 86.5847440824852 93.13044338622933 28.500001885683048
    vertex 86.06697712951883 93.52773994272405 28.500001839489915
  endloop
endfacet
facet normal 0.6087614290087187 0.7933533402912166 -1.7918418701377079e-07
  outer loop
    vertex 86.5847440824852 93.13044338622933 28.500001885683048
    vertex 86.06697742061709 93.5277409615681 34.00000012301211
    vertex 86.58474437358346 93.13044440507338 34.000000169205244
  endloop
endfacet
facet normal 0.38268343236507973 0.9238795325112711 -1.913978112369219e-07
  outer loop
    vertex 86.58474437358346 93.13044440507338 34.000000169205244
    vertex 87.18769646972889 92.88069232996776 28.50000190003559
    vertex 86.5847440824852 93.13044338622933 28.500001885683048
  endloop
endfacet
facet normal 0.38268343236507973 0.9238795325112711 -1.913978112369219e-07
  outer loop
    vertex 87.18769646972889 92.88069232996776 28.50000190003559
    vertex 86.58474437358346 93.13044440507338 34.000000169205244
    vertex 87.18769676082715 92.88069334881182 34.00000018355778
  endloop
endfacet
facet normal 0.1305261922200676 0.99144486137379 -1.905679909241152e-07
  outer loop
    vertex 87.18769646972889 92.88069232996776 28.50000190003559
    vertex 87.83474437358345 92.79550791453447 34.000000165091635
    vertex 87.83474408248519 92.79550689569041 28.500001881569442
  endloop
endfacet
facet normal 0.1305261922200676 0.99144486137379 -1.905679909241152e-07
  outer loop
    vertex 87.83474437358345 92.79550791453447 34.000000165091635
    vertex 87.18769646972889 92.88069232996776 28.50000190003559
    vertex 87.18769676082715 92.88069334881182 34.00000018355778
  endloop
endfacet
facet normal -0.1305261922200675 0.9914448613737926 -1.7675127695832348e-07
  outer loop
    vertex 87.83474408248519 92.79550689569041 28.500001881569442
    vertex 88.48179198633974 92.8806933488118 34.000000115065234
    vertex 88.48179169524148 92.88069232996774 28.50000183154304
  endloop
endfacet
facet normal -0.1305261922200675 0.9914448613737926 -1.7675127695832348e-07
  outer loop
    vertex 88.48179198633974 92.8806933488118 34.000000115065234
    vertex 87.83474408248519 92.79550689569041 28.500001881569442
    vertex 87.83474437358345 92.79550791453447 34.000000165091635
  endloop
endfacet
facet normal -0.3826834323650805 0.9238795325112783 -1.508892555631219e-07
  outer loop
    vertex 88.48179169524148 92.88069232996774 28.50000183154304
    vertex 89.08474437358345 93.13044440507336 34.0000000368878
    vertex 89.08474408248519 93.1304433862293 28.500001753365602
  endloop
endfacet
facet normal -0.3826834323650805 0.9238795325112783 -1.508892555631219e-07
  outer loop
    vertex 89.08474437358345 93.13044440507336 34.0000000368878
    vertex 88.48179169524148 92.88069232996774 28.50000183154304
    vertex 88.48179198633974 92.8806933488118 34.000000115065234
  endloop
endfacet
facet normal -0.6087614290087175 0.7933533402912294 -1.1474438075757535e-07
  outer loop
    vertex 89.08474408248519 93.1304433862293 28.500001753365602
    vertex 89.6025113265498 93.52774096156807 33.99999993588698
    vertex 89.60251103545154 93.52773994272401 28.50000165236479
  endloop
endfacet
facet normal -0.6087614290087175 0.7933533402912294 -1.1474438075757535e-07
  outer loop
    vertex 89.6025113265498 93.52774096156807 33.99999993588698
    vertex 89.08474408248519 93.1304433862293 28.500001753365602
    vertex 89.08474437358345 93.13044440507336 34.0000000368878
  endloop
endfacet
facet normal -0.7933533402912426 0.6087614290087067 -7.077986602745273e-08
  outer loop
    vertex 89.6025113265498 93.52774096156807 33.99999993588698
    vertex 89.99980759194627 94.04550689569038 28.50000153542364
    vertex 89.60251103545154 93.52773994272401 28.50000165236479
  endloop
endfacet
facet normal -0.7933533402912426 0.6087614290087067 -7.077986602745273e-08
  outer loop
    vertex 89.99980759194627 94.04550689569038 28.50000153542364
    vertex 89.6025113265498 93.52774096156807 33.99999993588698
    vertex 89.99980788304453 94.04550791453444 33.99999981894583
  endloop
endfacet
facet normal -0.923879532511286 0.38268343236509106 -2.1991820396823413e-08
  outer loop
    vertex 89.99980788304453 94.04550791453444 33.99999981894583
    vertex 90.24955864820784 94.64845928293406 28.500001410511505
    vertex 89.99980759194627 94.04550689569038 28.50000153542364
  endloop
endfacet
facet normal -0.923879532511286 0.38268343236509106 -2.1991820396823413e-08
  outer loop
    vertex 90.24955864820784 94.64845928293406 28.500001410511505
    vertex 89.99980788304453 94.04550791453444 33.99999981894583
    vertex 90.2495589393061 94.6484603017781 33.9999996940337
  endloop
endfacet
facet normal -0.9914448613738085 0.13052619222006365 2.8294931450649037e-08
  outer loop
    vertex 90.2495589393061 94.6484603017781 33.9999996940337
    vertex 90.33474408248517 95.29550689569034 28.500001286140932
    vertex 90.24955864820784 94.64845928293406 28.500001410511505
  endloop
endfacet
facet normal -0.9914448613738085 0.13052619222006365 2.8294931450649037e-08
  outer loop
    vertex 90.33474408248517 95.29550689569034 28.500001286140932
    vertex 90.2495589393061 94.6484603017781 33.9999996940337
    vertex 90.33474437358343 95.2955079145344 33.999999569663125
  endloop
endfacet
endsolid 90DegreeTSlotCorner
