solid YAxisEndStopBumper
facet normal -0.38268343236509017 0.9238795325112865 0.0
  outer loop
    vertex 1.1258628461959639 -4.201777344357447 5.0
    vertex 2.174999999999999 -3.767210506462308 0.0
    vertex 1.1258628461959639 -4.201777344357447 0.0
  endloop
endfacet
facet normal -0.38268343236509017 0.9238795325112865 0.0
  outer loop
    vertex 2.174999999999999 -3.767210506462308 0.0
    vertex 1.1258628461959639 -4.201777344357447 5.0
    vertex 2.174999999999999 -3.767210506462308 5.0
  endloop
endfacet
facet normal -0.6087614290087201 0.7933533402912356 0.0
  outer loop
    vertex 2.174999999999999 -3.767210506462308 5.0
    vertex 3.075914498161482 -3.075914498161482 0.0
    vertex 2.174999999999999 -3.767210506462308 0.0
  endloop
endfacet
facet normal -0.6087614290087201 0.7933533402912356 0.0
  outer loop
    vertex 3.075914498161482 -3.075914498161482 0.0
    vertex 2.174999999999999 -3.767210506462308 5.0
    vertex 3.075914498161482 -3.075914498161482 5.0
  endloop
endfacet
facet normal -0.9914448613738104 0.13052619222005193 0.0
  outer loop
    vertex 4.349999999999999 0.0 5.0
    vertex 4.2017773443574455 -1.1258628461959668 0.0
    vertex 4.2017773443574455 -1.1258628461959668 5.0
  endloop
endfacet
facet normal -0.9914448613738104 0.13052619222005193 0.0
  outer loop
    vertex 4.2017773443574455 -1.1258628461959668 0.0
    vertex 4.349999999999999 0.0 5.0
    vertex 4.349999999999999 0.0 0.0
  endloop
endfacet
facet normal -0.7933533402912353 0.6087614290087207 0.0
  outer loop
    vertex 3.7672105064623063 -2.1750000000000016 5.0
    vertex 3.075914498161482 -3.075914498161482 0.0
    vertex 3.075914498161482 -3.075914498161482 5.0
  endloop
endfacet
facet normal -0.7933533402912353 0.6087614290087207 0.0
  outer loop
    vertex 3.075914498161482 -3.075914498161482 0.0
    vertex 3.7672105064623063 -2.1750000000000016 5.0
    vertex 3.7672105064623063 -2.1750000000000016 0.0
  endloop
endfacet
facet normal -0.9238795325112867 0.38268343236508995 0.0
  outer loop
    vertex 4.2017773443574455 -1.1258628461959668 5.0
    vertex 3.7672105064623063 -2.1750000000000016 0.0
    vertex 3.7672105064623063 -2.1750000000000016 5.0
  endloop
endfacet
facet normal -0.9238795325112867 0.38268343236508995 0.0
  outer loop
    vertex 3.7672105064623063 -2.1750000000000016 0.0
    vertex 4.2017773443574455 -1.1258628461959668 5.0
    vertex 4.2017773443574455 -1.1258628461959668 0.0
  endloop
endfacet
facet normal -0.9914448613738105 -0.13052619222005152 -0.0
  outer loop
    vertex 4.2017773443574455 1.1258628461959639 5.0
    vertex 4.349999999999999 0.0 0.0
    vertex 4.349999999999999 0.0 5.0
  endloop
endfacet
facet normal -0.9914448613738105 -0.13052619222005152 -0.0
  outer loop
    vertex 4.349999999999999 0.0 0.0
    vertex 4.2017773443574455 1.1258628461959639 5.0
    vertex 4.2017773443574455 1.1258628461959639 0.0
  endloop
endfacet
facet normal -0.923879532511287 -0.3826834323650893 -0.0
  outer loop
    vertex 3.7672105064623094 2.174999999999999 5.0
    vertex 4.2017773443574455 1.1258628461959639 0.0
    vertex 4.2017773443574455 1.1258628461959639 5.0
  endloop
endfacet
facet normal -0.923879532511287 -0.3826834323650893 -0.0
  outer loop
    vertex 4.2017773443574455 1.1258628461959639 0.0
    vertex 3.7672105064623094 2.174999999999999 5.0
    vertex 3.7672105064623094 2.174999999999999 0.0
  endloop
endfacet
facet normal -0.13052619222005143 0.9914448613738105 0.0
  outer loop
    vertex 0.0 -4.35 5.0
    vertex 1.1258628461959639 -4.201777344357447 0.0
    vertex 0.0 -4.35 0.0
  endloop
endfacet
facet normal -0.13052619222005143 0.9914448613738105 0.0
  outer loop
    vertex 1.1258628461959639 -4.201777344357447 0.0
    vertex 0.0 -4.35 5.0
    vertex 1.1258628461959639 -4.201777344357447 5.0
  endloop
endfacet
facet normal 0.0 0.0 1.0
  outer loop
    vertex -9.659258262890683 -2.588190451025209 10.0
    vertex -9.659258262890683 2.588190451025209 10.0
    vertex -10.0 -1.4099832412739487e-15 10.0
  endloop
endfacet
facet normal 0.0 0.0 1.0
  outer loop
    vertex -9.659258262890683 2.588190451025209 10.0
    vertex -9.659258262890683 -2.588190451025209 10.0
    vertex -8.660254037844386 -4.999999999999998 10.0
  endloop
endfacet
facet normal 0.0 0.0 1.0
  outer loop
    vertex -9.659258262890683 2.588190451025209 10.0
    vertex -8.660254037844386 -4.999999999999998 10.0
    vertex -8.660254037844386 5.000000000000001 10.0
  endloop
endfacet
facet normal 0.0 0.0 1.0
  outer loop
    vertex -8.660254037844386 5.000000000000001 10.0
    vertex -8.660254037844386 -4.999999999999998 10.0
    vertex -7.071067811865479 -7.071067811865472 10.0
  endloop
endfacet
facet normal 0.0 0.0 1.0
  outer loop
    vertex -8.660254037844386 5.000000000000001 10.0
    vertex -7.071067811865479 -7.071067811865472 10.0
    vertex -7.071067811865472 7.071067811865477 10.0
  endloop
endfacet
facet normal 0.0 0.0 1.0
  outer loop
    vertex -7.071067811865472 7.071067811865477 10.0
    vertex -7.071067811865479 -7.071067811865472 10.0
    vertex -5.000000000000006 -8.660254037844382 10.0
  endloop
endfacet
facet normal 0.0 0.0 1.0
  outer loop
    vertex -7.071067811865472 7.071067811865477 10.0
    vertex -5.000000000000006 -8.660254037844382 10.0
    vertex -4.999999999999995 8.66025403784439 10.0
  endloop
endfacet
facet normal 0.0 0.0 1.0
  outer loop
    vertex -4.999999999999995 8.66025403784439 10.0
    vertex -5.000000000000006 -8.660254037844382 10.0
    vertex -2.5881904510252176 -9.65925826289068 10.0
  endloop
endfacet
facet normal 0.0 0.0 1.0
  outer loop
    vertex -4.999999999999995 8.66025403784439 10.0
    vertex -2.5881904510252176 -9.65925826289068 10.0
    vertex -2.5881904510252007 9.659258262890685 10.0
  endloop
endfacet
facet normal 0.0 0.0 1.0
  outer loop
    vertex -2.5881904510252007 9.659258262890685 10.0
    vertex -2.5881904510252176 -9.65925826289068 10.0
    vertex -2.4999999999999996 0.0 10.0
  endloop
endfacet
facet normal 0.0 0.0 1.0
  outer loop
    vertex -2.4999999999999996 0.0 10.0
    vertex -2.5881904510252176 -9.65925826289068 10.0
    vertex -2.4148145657226703 -0.6470476127563027 10.0
  endloop
endfacet
facet normal 0.0 0.0 1.0
  outer loop
    vertex -2.4148145657226703 -0.6470476127563027 10.0
    vertex -2.5881904510252176 -9.65925826289068 10.0
    vertex -1.2689849171465539e-14 -10.0 10.0
  endloop
endfacet
facet normal 0.0 0.0 1.0
  outer loop
    vertex -2.4148145657226703 -0.6470476127563027 10.0
    vertex -1.2689849171465539e-14 -10.0 10.0
    vertex -2.1650635094610964 -1.2500000000000004 10.0
  endloop
endfacet
facet normal 0.0 0.0 1.0
  outer loop
    vertex -2.1650635094610964 -1.2500000000000004 10.0
    vertex -1.2689849171465539e-14 -10.0 10.0
    vertex -1.767766952966369 -1.767766952966369 10.0
  endloop
endfacet
facet normal 0.0 0.0 1.0
  outer loop
    vertex -1.767766952966369 -1.767766952966369 10.0
    vertex -1.2689849171465539e-14 -10.0 10.0
    vertex -1.2499999999999991 -2.1650635094610964 10.0
  endloop
endfacet
facet normal 0.0 0.0 1.0
  outer loop
    vertex -1.2499999999999991 -2.1650635094610964 10.0
    vertex -1.2689849171465539e-14 -10.0 10.0
    vertex -0.6470476127563013 -2.4148145657226703 10.0
  endloop
endfacet
facet normal 0.0 0.0 1.0
  outer loop
    vertex -0.6470476127563013 -2.4148145657226703 10.0
    vertex -1.2689849171465539e-14 -10.0 10.0
    vertex 0.0 -2.4999999999999996 10.0
  endloop
endfacet
facet normal 0.0 0.0 1.0
  outer loop
    vertex 0.0 -2.4999999999999996 10.0
    vertex -1.2689849171465539e-14 -10.0 10.0
    vertex 2.5881904510251923 -9.659258262890686 10.0
  endloop
endfacet
facet normal 0.0 0.0 1.0
  outer loop
    vertex 0.0 -2.4999999999999996 10.0
    vertex 2.5881904510251923 -9.659258262890686 10.0
    vertex 0.6470476127563027 -2.4148145657226703 10.0
  endloop
endfacet
facet normal 0.0 0.0 1.0
  outer loop
    vertex 0.6470476127563027 -2.4148145657226703 10.0
    vertex 2.5881904510251923 -9.659258262890686 10.0
    vertex 1.2500000000000004 -2.1650635094610964 10.0
  endloop
endfacet
facet normal 0.0 0.0 1.0
  outer loop
    vertex 1.2500000000000004 -2.1650635094610964 10.0
    vertex 2.5881904510251923 -9.659258262890686 10.0
    vertex 1.767766952966369 -1.767766952966369 10.0
  endloop
endfacet
facet normal 0.0 0.0 1.0
  outer loop
    vertex 1.767766952966369 -1.767766952966369 10.0
    vertex 2.5881904510251923 -9.659258262890686 10.0
    vertex 2.1650635094610964 -1.2499999999999991 10.0
  endloop
endfacet
facet normal 0.0 0.0 1.0
  outer loop
    vertex 2.1650635094610964 -1.2499999999999991 10.0
    vertex 2.5881904510251923 -9.659258262890686 10.0
    vertex 2.4148145657226703 -0.6470476127563013 10.0
  endloop
endfacet
facet normal 0.0 0.0 1.0
  outer loop
    vertex 2.4148145657226703 -0.6470476127563013 10.0
    vertex 2.5881904510251923 -9.659258262890686 10.0
    vertex 2.4999999999999996 0.0 10.0
  endloop
endfacet
facet normal 0.0 0.0 1.0
  outer loop
    vertex -2.5881904510252007 9.659258262890685 10.0
    vertex -2.4148145657226703 0.6470476127563013 10.0
    vertex 8.459899447643692e-15 9.999999999999996 10.0
  endloop
endfacet
facet normal 0.0 0.0 1.0
  outer loop
    vertex -2.4148145657226703 0.6470476127563013 10.0
    vertex -2.5881904510252007 9.659258262890685 10.0
    vertex -2.4999999999999996 0.0 10.0
  endloop
endfacet
facet normal 0.0 0.0 1.0
  outer loop
    vertex 8.459899447643692e-15 9.999999999999996 10.0
    vertex -2.4148145657226703 0.6470476127563013 10.0
    vertex -2.1650635094610964 1.2499999999999991 10.0
  endloop
endfacet
facet normal 0.0 0.0 1.0
  outer loop
    vertex 8.459899447643692e-15 9.999999999999996 10.0
    vertex -2.1650635094610964 1.2499999999999991 10.0
    vertex -1.767766952966369 1.7677669529663675 10.0
  endloop
endfacet
facet normal 0.0 0.0 1.0
  outer loop
    vertex 8.459899447643692e-15 9.999999999999996 10.0
    vertex -1.767766952966369 1.7677669529663675 10.0
    vertex -1.2500000000000004 2.1650635094610964 10.0
  endloop
endfacet
facet normal 0.0 0.0 1.0
  outer loop
    vertex 8.459899447643692e-15 9.999999999999996 10.0
    vertex -1.2500000000000004 2.1650635094610964 10.0
    vertex -0.6470476127563041 2.4148145657226703 10.0
  endloop
endfacet
facet normal 0.0 0.0 1.0
  outer loop
    vertex 8.459899447643692e-15 9.999999999999996 10.0
    vertex -0.6470476127563041 2.4148145657226703 10.0
    vertex 0.0 2.4999999999999996 10.0
  endloop
endfacet
facet normal 0.0 0.0 1.0
  outer loop
    vertex 8.459899447643692e-15 9.999999999999996 10.0
    vertex 0.0 2.4999999999999996 10.0
    vertex 0.6470476127563013 2.4148145657226703 10.0
  endloop
endfacet
facet normal 0.0 0.0 1.0
  outer loop
    vertex 8.459899447643692e-15 9.999999999999996 10.0
    vertex 0.6470476127563013 2.4148145657226703 10.0
    vertex 2.5881904510252176 9.65925826289068 10.0
  endloop
endfacet
facet normal 0.0 0.0 1.0
  outer loop
    vertex 2.5881904510252176 9.65925826289068 10.0
    vertex 0.6470476127563013 2.4148145657226703 10.0
    vertex 1.2499999999999991 2.1650635094610977 10.0
  endloop
endfacet
facet normal 0.0 0.0 1.0
  outer loop
    vertex 2.5881904510252176 9.65925826289068 10.0
    vertex 1.2499999999999991 2.1650635094610977 10.0
    vertex 1.767766952966369 1.767766952966369 10.0
  endloop
endfacet
facet normal 0.0 0.0 1.0
  outer loop
    vertex 2.5881904510252176 9.65925826289068 10.0
    vertex 1.767766952966369 1.767766952966369 10.0
    vertex 2.1650635094610964 1.2500000000000004 10.0
  endloop
endfacet
facet normal 0.0 0.0 1.0
  outer loop
    vertex 2.5881904510252176 9.65925826289068 10.0
    vertex 2.1650635094610964 1.2500000000000004 10.0
    vertex 2.4148145657226703 0.6470476127563041 10.0
  endloop
endfacet
facet normal 0.0 0.0 1.0
  outer loop
    vertex 2.5881904510252176 9.65925826289068 10.0
    vertex 2.4148145657226703 0.6470476127563041 10.0
    vertex 2.4999999999999996 0.0 10.0
  endloop
endfacet
facet normal 0.0 0.0 1.0
  outer loop
    vertex 2.5881904510252176 9.65925826289068 10.0
    vertex 2.4999999999999996 0.0 10.0
    vertex 2.5881904510251923 -9.659258262890686 10.0
  endloop
endfacet
facet normal 0.0 0.0 1.0
  outer loop
    vertex 2.5881904510252176 9.65925826289068 10.0
    vertex 2.5881904510251923 -9.659258262890686 10.0
    vertex 4.999999999999984 -8.660254037844396 10.0
  endloop
endfacet
facet normal 0.0 0.0 1.0
  outer loop
    vertex 2.5881904510252176 9.65925826289068 10.0
    vertex 4.999999999999984 -8.660254037844396 10.0
    vertex 5.000000000000006 8.660254037844382 10.0
  endloop
endfacet
facet normal 0.0 0.0 1.0
  outer loop
    vertex 5.000000000000006 8.660254037844382 10.0
    vertex 4.999999999999984 -8.660254037844396 10.0
    vertex 7.071067811865458 -7.0710678118654915 10.0
  endloop
endfacet
facet normal 0.0 0.0 1.0
  outer loop
    vertex 5.000000000000006 8.660254037844382 10.0
    vertex 7.071067811865458 -7.0710678118654915 10.0
    vertex 7.07106781186548 7.071067811865469 10.0
  endloop
endfacet
facet normal 0.0 0.0 1.0
  outer loop
    vertex 7.07106781186548 7.071067811865469 10.0
    vertex 7.071067811865458 -7.0710678118654915 10.0
    vertex 8.660254037844373 -5.000000000000022 10.0
  endloop
endfacet
facet normal 0.0 0.0 1.0
  outer loop
    vertex 7.07106781186548 7.071067811865469 10.0
    vertex 8.660254037844373 -5.000000000000022 10.0
    vertex 8.66025403784439 4.999999999999992 10.0
  endloop
endfacet
facet normal 0.0 0.0 1.0
  outer loop
    vertex 8.66025403784439 4.999999999999992 10.0
    vertex 8.660254037844373 -5.000000000000022 10.0
    vertex 9.65925826289068 -2.5881904510252136 10.0
  endloop
endfacet
facet normal 0.0 0.0 1.0
  outer loop
    vertex 8.66025403784439 4.999999999999992 10.0
    vertex 9.65925826289068 -2.5881904510252136 10.0
    vertex 9.659258262890685 2.5881904510252007 10.0
  endloop
endfacet
facet normal 0.0 0.0 1.0
  outer loop
    vertex 9.659258262890685 2.5881904510252007 10.0
    vertex 9.65925826289068 -2.5881904510252136 10.0
    vertex 10.0 -7.049916206369744e-15 10.0
  endloop
endfacet
facet normal 0.9238795325112868 0.3826834323650894 1.0202852181510944e-16
  outer loop
    vertex 9.659258262890683 2.5881904510252065 0.0
    vertex 8.66025403784439 4.999999999999992 10.0
    vertex 9.659258262890685 2.5881904510252007 10.0
  endloop
endfacet
facet normal 0.9238795325112868 0.3826834323650894 1.0202852181510944e-16
  outer loop
    vertex 8.66025403784439 4.999999999999992 10.0
    vertex 9.659258262890683 2.5881904510252065 0.0
    vertex 8.660254037844387 5.000000000000001 0.0
  endloop
endfacet
facet normal -0.38268343236509006 -0.9238795325112867 3.0945610056012123e-17
  outer loop
    vertex -2.5881904510252176 -9.65925826289068 10.0
    vertex -4.999999999999996 -8.660254037844389 0.0
    vertex -2.5881904510252065 -9.659258262890683 0.0
  endloop
endfacet
facet normal -0.38268343236509006 -0.9238795325112867 3.0945610056012123e-17
  outer loop
    vertex -4.999999999999996 -8.660254037844389 0.0
    vertex -2.5881904510252176 -9.65925826289068 10.0
    vertex -5.000000000000006 -8.660254037844382 10.0
  endloop
endfacet
facet normal -0.38268343236508934 0.9238795325112868 5.10142609075547e-17
  outer loop
    vertex -4.999999999999995 8.66025403784439 10.0
    vertex -2.588190451025204 9.659258262890685 0.0
    vertex -4.999999999999998 8.660254037844387 0.0
  endloop
endfacet
facet normal -0.38268343236508934 0.9238795325112868 5.10142609075547e-17
  outer loop
    vertex -2.588190451025204 9.659258262890685 0.0
    vertex -4.999999999999995 8.66025403784439 10.0
    vertex -2.5881904510252007 9.659258262890685 10.0
  endloop
endfacet
facet normal 0.6087614290087209 0.7933533402912352 8.646031891723006e-17
  outer loop
    vertex 5.000000000000006 8.660254037844382 10.0
    vertex 7.071067811865475 7.071067811865475 0.0
    vertex 5.000000000000001 8.660254037844386 0.0
  endloop
endfacet
facet normal 0.6087614290087209 0.7933533402912352 8.646031891723006e-17
  outer loop
    vertex 7.071067811865475 7.071067811865475 0.0
    vertex 5.000000000000006 8.660254037844382 10.0
    vertex 7.07106781186548 7.071067811865469 10.0
  endloop
endfacet
facet normal 0.9238795325112862 -0.38268343236509117 1.3781355529656258e-16
  outer loop
    vertex 8.660254037844378 -5.0000000000000115 0.0
    vertex 9.65925826289068 -2.5881904510252136 10.0
    vertex 8.660254037844373 -5.000000000000022 10.0
  endloop
endfacet
facet normal 0.9238795325112862 -0.38268343236509117 1.3781355529656258e-16
  outer loop
    vertex 9.65925826289068 -2.5881904510252136 10.0
    vertex 8.660254037844378 -5.0000000000000115 0.0
    vertex 9.65925826289068 -2.5881904510252234 0.0
  endloop
endfacet
facet normal 0.1305261922200508 -0.9914448613738105 8.916239590740567e-18
  outer loop
    vertex 2.5881904510251923 -9.659258262890686 10.0
    vertex -1.4099832412739487e-15 -10.0 0.0
    vertex 2.588190451025204 -9.659258262890685 0.0
  endloop
endfacet
facet normal 0.1305261922200508 -0.9914448613738105 8.916239590740567e-18
  outer loop
    vertex -1.4099832412739487e-15 -10.0 0.0
    vertex 2.5881904510251923 -9.659258262890686 10.0
    vertex -1.2689849171465539e-14 -10.0 10.0
  endloop
endfacet
facet normal 0.13052619222005174 0.9914448613738105 5.397264146953582e-17
  outer loop
    vertex 8.459899447643692e-15 9.999999999999996 10.0
    vertex 2.588190451025209 9.659258262890683 0.0
    vertex 2.8199664825478975e-15 10.0 0.0
  endloop
endfacet
facet normal 0.13052619222005174 0.9914448613738105 5.397264146953582e-17
  outer loop
    vertex 2.588190451025209 9.659258262890683 0.0
    vertex 8.459899447643692e-15 9.999999999999996 10.0
    vertex 2.5881904510252176 9.65925826289068 10.0
  endloop
endfacet
facet normal 0.3826834323650905 0.9238795325112865 5.804773842493348e-18
  outer loop
    vertex 2.5881904510252176 9.65925826289068 10.0
    vertex 5.000000000000001 8.660254037844386 0.0
    vertex 2.588190451025209 9.659258262890683 0.0
  endloop
endfacet
facet normal 0.3826834323650905 0.9238795325112865 5.804773842493348e-18
  outer loop
    vertex 5.000000000000001 8.660254037844386 0.0
    vertex 2.5881904510252176 9.65925826289068 10.0
    vertex 5.000000000000006 8.660254037844382 10.0
  endloop
endfacet
facet normal 0.6087614290087193 -0.7933533402912363 5.1428107104519697e-17
  outer loop
    vertex 7.071067811865458 -7.0710678118654915 10.0
    vertex 4.999999999999995 -8.66025403784439 0.0
    vertex 7.071067811865469 -7.071067811865483 0.0
  endloop
endfacet
facet normal 0.6087614290087193 -0.7933533402912363 5.1428107104519697e-17
  outer loop
    vertex 4.999999999999995 -8.66025403784439 0.0
    vertex 7.071067811865458 -7.0710678118654915 10.0
    vertex 4.999999999999984 -8.660254037844396 10.0
  endloop
endfacet
facet normal -0.6087614290087204 -0.7933533402912355 2.6724733644147005e-17
  outer loop
    vertex -5.000000000000006 -8.660254037844382 10.0
    vertex -7.07106781186547 -7.07106781186548 0.0
    vertex -4.999999999999996 -8.660254037844389 0.0
  endloop
endfacet
facet normal -0.6087614290087204 -0.7933533402912355 2.6724733644147005e-17
  outer loop
    vertex -7.07106781186547 -7.07106781186548 0.0
    vertex -5.000000000000006 -8.660254037844382 10.0
    vertex -7.071067811865479 -7.071067811865472 10.0
  endloop
endfacet
facet normal 0.7933533402912357 0.6087614290087202 1.503718012273545e-16
  outer loop
    vertex 8.660254037844387 5.000000000000001 0.0
    vertex 7.07106781186548 7.071067811865469 10.0
    vertex 8.66025403784439 4.999999999999992 10.0
  endloop
endfacet
facet normal 0.7933533402912357 0.6087614290087202 1.503718012273545e-16
  outer loop
    vertex 7.07106781186548 7.071067811865469 10.0
    vertex 8.660254037844387 5.000000000000001 0.0
    vertex 7.071067811865475 7.071067811865475 0.0
  endloop
endfacet
facet normal -0.6087614290087205 0.7933533402912353 5.696634956591761e-17
  outer loop
    vertex -7.071067811865472 7.071067811865477 10.0
    vertex -4.999999999999998 8.660254037844387 0.0
    vertex -7.071067811865475 7.071067811865475 0.0
  endloop
endfacet
facet normal -0.6087614290087205 0.7933533402912353 5.696634956591761e-17
  outer loop
    vertex -4.999999999999998 8.660254037844387 0.0
    vertex -7.071067811865472 7.071067811865477 10.0
    vertex -4.999999999999995 8.66025403784439 10.0
  endloop
endfacet
facet normal 0.9914448613738105 0.13052619222005096 -1.1901769500752872e-16
  outer loop
    vertex 9.659258262890683 2.5881904510252065 0.0
    vertex 10.0 -7.049916206369744e-15 10.0
    vertex 10.0 -1.973976537783528e-14 0.0
  endloop
endfacet
facet normal 0.9914448613738105 0.13052619222005096 -1.1901769500752872e-16
  outer loop
    vertex 10.0 -7.049916206369744e-15 10.0
    vertex 9.659258262890683 2.5881904510252065 0.0
    vertex 9.659258262890685 2.5881904510252007 10.0
  endloop
endfacet
facet normal 0.9914448613738103 -0.13052619222005293 1.768113237862513e-17
  outer loop
    vertex 10.0 -1.973976537783528e-14 0.0
    vertex 9.65925826289068 -2.5881904510252136 10.0
    vertex 9.65925826289068 -2.5881904510252234 0.0
  endloop
endfacet
facet normal 0.9914448613738103 -0.13052619222005293 1.768113237862513e-17
  outer loop
    vertex 9.65925826289068 -2.5881904510252136 10.0
    vertex 10.0 -1.973976537783528e-14 0.0
    vertex 10.0 -7.049916206369744e-15 10.0
  endloop
endfacet
facet normal 0.7933533402912342 -0.6087614290087222 -1.9736200806164087e-17
  outer loop
    vertex 7.071067811865469 -7.071067811865483 0.0
    vertex 8.660254037844373 -5.000000000000022 10.0
    vertex 7.071067811865458 -7.0710678118654915 10.0
  endloop
endfacet
facet normal 0.7933533402912342 -0.6087614290087222 -1.9736200806164087e-17
  outer loop
    vertex 8.660254037844373 -5.000000000000022 10.0
    vertex 7.071067811865469 -7.071067811865483 0.0
    vertex 8.660254037844378 -5.0000000000000115 0.0
  endloop
endfacet
facet normal 0.3826834323650886 -0.9238795325112873 3.5376212255701776e-17
  outer loop
    vertex 4.999999999999984 -8.660254037844396 10.0
    vertex 2.588190451025204 -9.659258262890685 0.0
    vertex 4.999999999999995 -8.66025403784439 0.0
  endloop
endfacet
facet normal 0.3826834323650886 -0.9238795325112873 3.5376212255701776e-17
  outer loop
    vertex 2.588190451025204 -9.659258262890685 0.0
    vertex 4.999999999999984 -8.660254037844396 10.0
    vertex 2.5881904510251923 -9.659258262890686 10.0
  endloop
endfacet
facet normal -0.13052619222005243 -0.9914448613738103 -1.1837870520036474e-17
  outer loop
    vertex -1.2689849171465539e-14 -10.0 10.0
    vertex -2.5881904510252065 -9.659258262890683 0.0
    vertex -1.4099832412739487e-15 -10.0 0.0
  endloop
endfacet
facet normal -0.13052619222005243 -0.9914448613738103 -1.1837870520036474e-17
  outer loop
    vertex -2.5881904510252065 -9.659258262890683 0.0
    vertex -1.2689849171465539e-14 -10.0 10.0
    vertex -2.5881904510252176 -9.65925826289068 10.0
  endloop
endfacet
facet normal -0.7933533402912352 -0.6087614290087205 2.171416089615582e-17
  outer loop
    vertex -7.071067811865479 -7.071067811865472 10.0
    vertex -8.660254037844384 -5.000000000000005 0.0
    vertex -7.07106781186547 -7.07106781186548 0.0
  endloop
endfacet
facet normal -0.7933533402912352 -0.6087614290087205 2.171416089615582e-17
  outer loop
    vertex -8.660254037844384 -5.000000000000005 0.0
    vertex -7.071067811865479 -7.071067811865472 10.0
    vertex -8.660254037844386 -4.999999999999998 10.0
  endloop
endfacet
facet normal -0.9238795325112865 -0.3826834323650903 6.348247370787696e-17
  outer loop
    vertex -8.660254037844386 -4.999999999999998 10.0
    vertex -9.659258262890683 -2.5881904510252123 0.0
    vertex -8.660254037844384 -5.000000000000005 0.0
  endloop
endfacet
facet normal -0.9238795325112865 -0.3826834323650903 6.348247370787696e-17
  outer loop
    vertex -9.659258262890683 -2.5881904510252123 0.0
    vertex -8.660254037844386 -4.999999999999998 10.0
    vertex -9.659258262890683 -2.588190451025209 10.0
  endloop
endfacet
facet normal -0.9914448613738105 -0.1305261922200517 3.6520386616175043e-17
  outer loop
    vertex -9.659258262890683 -2.588190451025209 10.0
    vertex -10.0 -2.8199664825478975e-15 0.0
    vertex -9.659258262890683 -2.5881904510252123 0.0
  endloop
endfacet
facet normal -0.9914448613738105 -0.1305261922200517 3.6520386616175043e-17
  outer loop
    vertex -10.0 -2.8199664825478975e-15 0.0
    vertex -9.659258262890683 -2.588190451025209 10.0
    vertex -10.0 -1.4099832412739487e-15 10.0
  endloop
endfacet
facet normal -0.9914448613738105 0.13052619222005168 -3.6520386616175025e-17
  outer loop
    vertex -10.0 -1.4099832412739487e-15 10.0
    vertex -9.659258262890683 2.5881904510252065 0.0
    vertex -10.0 -2.8199664825478975e-15 0.0
  endloop
endfacet
facet normal -0.9914448613738105 0.13052619222005168 -3.6520386616175025e-17
  outer loop
    vertex -9.659258262890683 2.5881904510252065 0.0
    vertex -10.0 -1.4099832412739487e-15 10.0
    vertex -9.659258262890683 2.588190451025209 10.0
  endloop
endfacet
facet normal -0.9238795325112868 0.38268343236508967 9.32672827245249e-18
  outer loop
    vertex -9.659258262890683 2.588190451025209 10.0
    vertex -8.660254037844387 5.000000000000001 0.0
    vertex -9.659258262890683 2.5881904510252065 0.0
  endloop
endfacet
facet normal -0.9238795325112868 0.38268343236508967 9.32672827245249e-18
  outer loop
    vertex -8.660254037844387 5.000000000000001 0.0
    vertex -9.659258262890683 2.588190451025209 10.0
    vertex -8.660254037844386 5.000000000000001 10.0
  endloop
endfacet
facet normal -0.7933533402912349 0.6087614290087209 9.933933193141906e-17
  outer loop
    vertex -7.071067811865472 7.071067811865477 10.0
    vertex -8.660254037844387 5.000000000000001 0.0
    vertex -8.660254037844386 5.000000000000001 10.0
  endloop
endfacet
facet normal -0.7933533402912349 0.6087614290087209 9.933933193141906e-17
  outer loop
    vertex -8.660254037844387 5.000000000000001 0.0
    vertex -7.071067811865472 7.071067811865477 10.0
    vertex -7.071067811865475 7.071067811865475 0.0
  endloop
endfacet
facet normal -0.13052619222005094 0.9914448613738105 1.2632177233076367e-16
  outer loop
    vertex -2.5881904510252007 9.659258262890685 10.0
    vertex 2.8199664825478975e-15 10.0 0.0
    vertex -2.588190451025204 9.659258262890685 0.0
  endloop
endfacet
facet normal -0.13052619222005094 0.9914448613738105 1.2632177233076367e-16
  outer loop
    vertex 2.8199664825478975e-15 10.0 0.0
    vertex -2.5881904510252007 9.659258262890685 10.0
    vertex 8.459899447643692e-15 9.999999999999996 10.0
  endloop
endfacet
facet normal 0.130526192220052 -0.9914448613738104 0.0
  outer loop
    vertex 0.0 2.4999999999999996 10.0
    vertex -0.6470476127563041 2.4148145657226703 4.999999999999998
    vertex 0.0 2.4999999999999996 4.999999999999998
  endloop
endfacet
facet normal 0.130526192220052 -0.9914448613738104 0.0
  outer loop
    vertex -0.6470476127563041 2.4148145657226703 4.999999999999998
    vertex 0.0 2.4999999999999996 10.0
    vertex -0.6470476127563041 2.4148145657226703 10.0
  endloop
endfacet
facet normal 0.3826834323650902 -0.9238795325112865 0.0
  outer loop
    vertex -0.6470476127563041 2.4148145657226703 10.0
    vertex -1.2500000000000004 2.1650635094610964 4.999999999999998
    vertex -0.6470476127563041 2.4148145657226703 4.999999999999998
  endloop
endfacet
facet normal 0.3826834323650902 -0.9238795325112865 0.0
  outer loop
    vertex -1.2500000000000004 2.1650635094610964 4.999999999999998
    vertex -0.6470476127563041 2.4148145657226703 10.0
    vertex -1.2500000000000004 2.1650635094610964 10.0
  endloop
endfacet
facet normal 0.6087614290087212 -0.7933533402912348 0.0
  outer loop
    vertex -1.2500000000000004 2.1650635094610964 10.0
    vertex -1.767766952966369 1.7677669529663675 4.999999999999998
    vertex -1.2500000000000004 2.1650635094610964 4.999999999999998
  endloop
endfacet
facet normal 0.6087614290087212 -0.7933533402912348 0.0
  outer loop
    vertex -1.767766952966369 1.7677669529663675 4.999999999999998
    vertex -1.2500000000000004 2.1650635094610964 10.0
    vertex -1.767766952966369 1.7677669529663675 10.0
  endloop
endfacet
facet normal -0.38268343236508917 -0.9238795325112872 -0.0
  outer loop
    vertex 1.2499999999999991 2.1650635094610977 10.0
    vertex 0.6470476127563013 2.4148145657226703 4.999999999999998
    vertex 1.2499999999999991 2.1650635094610977 4.999999999999998
  endloop
endfacet
facet normal -0.38268343236508917 -0.9238795325112872 -0.0
  outer loop
    vertex 0.6470476127563013 2.4148145657226703 4.999999999999998
    vertex 1.2499999999999991 2.1650635094610977 10.0
    vertex 0.6470476127563013 2.4148145657226703 10.0
  endloop
endfacet
facet normal -0.13052619222005135 -0.9914448613738105 -0.0
  outer loop
    vertex 0.6470476127563013 2.4148145657226703 10.0
    vertex 0.0 2.4999999999999996 4.999999999999998
    vertex 0.6470476127563013 2.4148145657226703 4.999999999999998
  endloop
endfacet
facet normal -0.13052619222005135 -0.9914448613738105 -0.0
  outer loop
    vertex 0.0 2.4999999999999996 4.999999999999998
    vertex 0.6470476127563013 2.4148145657226703 10.0
    vertex 0.0 2.4999999999999996 10.0
  endloop
endfacet
facet normal 0.7933533402912353 -0.6087614290087204 0.0
  outer loop
    vertex -1.767766952966369 1.7677669529663675 4.999999999999998
    vertex -2.1650635094610964 1.2499999999999991 10.0
    vertex -2.1650635094610964 1.2499999999999991 4.999999999999998
  endloop
endfacet
facet normal 0.7933533402912353 -0.6087614290087204 0.0
  outer loop
    vertex -2.1650635094610964 1.2499999999999991 10.0
    vertex -1.767766952966369 1.7677669529663675 4.999999999999998
    vertex -1.767766952966369 1.7677669529663675 10.0
  endloop
endfacet
facet normal 0.0 0.0 -1.0
  outer loop
    vertex -2.1749999999999976 3.7672105064623094 5.0
    vertex -2.4999999999999996 0.0 4.999999999999998
    vertex -3.0759144981614805 3.075914498161482 5.0
  endloop
endfacet
facet normal 0.0 0.0 -1.0
  outer loop
    vertex -2.4999999999999996 0.0 4.999999999999998
    vertex -2.1749999999999976 3.7672105064623094 5.0
    vertex -2.4148145657226703 0.6470476127563013 4.999999999999998
  endloop
endfacet
facet normal 0.0 0.0 -1.0
  outer loop
    vertex -2.4148145657226703 0.6470476127563013 4.999999999999998
    vertex -2.1749999999999976 3.7672105064623094 5.0
    vertex -2.1650635094610964 1.2499999999999991 4.999999999999998
  endloop
endfacet
facet normal 0.0 0.0 -1.0
  outer loop
    vertex -2.1650635094610964 1.2499999999999991 4.999999999999998
    vertex -2.1749999999999976 3.7672105064623094 5.0
    vertex -1.1258628461959626 4.2017773443574455 5.0
  endloop
endfacet
facet normal 0.0 0.0 -1.0
  outer loop
    vertex -2.1650635094610964 1.2499999999999991 4.999999999999998
    vertex -1.1258628461959626 4.2017773443574455 5.0
    vertex -1.767766952966369 1.7677669529663675 4.999999999999998
  endloop
endfacet
facet normal 0.0 0.0 -1.0
  outer loop
    vertex -1.767766952966369 1.7677669529663675 4.999999999999998
    vertex -1.1258628461959626 4.2017773443574455 5.0
    vertex -1.2500000000000004 2.1650635094610964 4.999999999999998
  endloop
endfacet
facet normal 0.0 0.0 -1.0
  outer loop
    vertex -1.2500000000000004 2.1650635094610964 4.999999999999998
    vertex -1.1258628461959626 4.2017773443574455 5.0
    vertex -0.6470476127563041 2.4148145657226703 4.999999999999998
  endloop
endfacet
facet normal 0.0 0.0 -1.0
  outer loop
    vertex -0.6470476127563041 2.4148145657226703 4.999999999999998
    vertex -1.1258628461959626 4.2017773443574455 5.0
    vertex 1.4099832412739487e-15 4.349999999999999 5.0
  endloop
endfacet
facet normal 0.0 0.0 -1.0
  outer loop
    vertex -0.6470476127563041 2.4148145657226703 4.999999999999998
    vertex 1.4099832412739487e-15 4.349999999999999 5.0
    vertex 0.0 2.4999999999999996 4.999999999999998
  endloop
endfacet
facet normal 0.0 0.0 -1.0
  outer loop
    vertex 0.0 2.4999999999999996 4.999999999999998
    vertex 1.4099832412739487e-15 4.349999999999999 5.0
    vertex 0.6470476127563013 2.4148145657226703 4.999999999999998
  endloop
endfacet
facet normal 0.0 0.0 -1.0
  outer loop
    vertex 0.6470476127563013 2.4148145657226703 4.999999999999998
    vertex 1.4099832412739487e-15 4.349999999999999 5.0
    vertex 1.125862846195968 4.2017773443574455 5.0
  endloop
endfacet
facet normal 0.0 0.0 -1.0
  outer loop
    vertex 0.6470476127563013 2.4148145657226703 4.999999999999998
    vertex 1.125862846195968 4.2017773443574455 5.0
    vertex 1.2499999999999991 2.1650635094610977 4.999999999999998
  endloop
endfacet
facet normal 0.0 0.0 -1.0
  outer loop
    vertex 1.2499999999999991 2.1650635094610977 4.999999999999998
    vertex 1.125862846195968 4.2017773443574455 5.0
    vertex 2.1750000000000016 3.7672105064623063 5.0
  endloop
endfacet
facet normal 0.0 0.0 -1.0
  outer loop
    vertex 1.2499999999999991 2.1650635094610977 4.999999999999998
    vertex 2.1750000000000016 3.7672105064623063 5.0
    vertex 1.767766952966369 1.767766952966369 4.999999999999998
  endloop
endfacet
facet normal 0.0 0.0 -1.0
  outer loop
    vertex 1.767766952966369 1.767766952966369 4.999999999999998
    vertex 2.1750000000000016 3.7672105064623063 5.0
    vertex 2.1650635094610964 1.2500000000000004 4.999999999999998
  endloop
endfacet
facet normal 0.0 0.0 -1.0
  outer loop
    vertex 2.1650635094610964 1.2500000000000004 4.999999999999998
    vertex 2.1750000000000016 3.7672105064623063 5.0
    vertex 2.4148145657226703 0.6470476127563041 4.999999999999998
  endloop
endfacet
facet normal 0.0 0.0 -1.0
  outer loop
    vertex 2.4148145657226703 0.6470476127563041 4.999999999999998
    vertex 2.1750000000000016 3.7672105064623063 5.0
    vertex 3.075914498161482 3.0759144981614788 5.0
  endloop
endfacet
facet normal 0.0 0.0 -1.0
  outer loop
    vertex 2.4148145657226703 0.6470476127563041 4.999999999999998
    vertex 3.075914498161482 3.0759144981614788 5.0
    vertex 2.4999999999999996 0.0 4.999999999999998
  endloop
endfacet
facet normal 0.0 0.0 -1.0
  outer loop
    vertex -4.201777344357445 1.125862846195968 5.0
    vertex -4.201777344357446 -1.1258628461959652 5.0
    vertex -4.349999999999999 0.0 5.0
  endloop
endfacet
facet normal 0.0 0.0 -1.0
  outer loop
    vertex -4.201777344357446 -1.1258628461959652 5.0
    vertex -4.201777344357445 1.125862846195968 5.0
    vertex -3.767210506462307 -2.1750000000000003 5.0
  endloop
endfacet
facet normal 0.0 0.0 -1.0
  outer loop
    vertex -3.767210506462307 -2.1750000000000003 5.0
    vertex -4.201777344357445 1.125862846195968 5.0
    vertex -3.767210506462306 2.1750000000000016 5.0
  endloop
endfacet
facet normal 0.0 0.0 -1.0
  outer loop
    vertex -3.767210506462307 -2.1750000000000003 5.0
    vertex -3.767210506462306 2.1750000000000016 5.0
    vertex -3.075914498161482 -3.075914498161482 5.0
  endloop
endfacet
facet normal 0.0 0.0 -1.0
  outer loop
    vertex -3.075914498161482 -3.075914498161482 5.0
    vertex -3.767210506462306 2.1750000000000016 5.0
    vertex -3.0759144981614805 3.075914498161482 5.0
  endloop
endfacet
facet normal 0.0 0.0 -1.0
  outer loop
    vertex -3.075914498161482 -3.075914498161482 5.0
    vertex -3.0759144981614805 3.075914498161482 5.0
    vertex -2.1750000000000003 -3.767210506462308 5.0
  endloop
endfacet
facet normal 0.0 0.0 -1.0
  outer loop
    vertex -2.1750000000000003 -3.767210506462308 5.0
    vertex -3.0759144981614805 3.075914498161482 5.0
    vertex -2.4999999999999996 0.0 4.999999999999998
  endloop
endfacet
facet normal 0.0 0.0 -1.0
  outer loop
    vertex -2.1750000000000003 -3.767210506462308 5.0
    vertex -2.4999999999999996 0.0 4.999999999999998
    vertex -2.4148145657226703 -0.6470476127563027 4.999999999999998
  endloop
endfacet
facet normal 0.0 0.0 -1.0
  outer loop
    vertex -2.1750000000000003 -3.767210506462308 5.0
    vertex -2.4148145657226703 -0.6470476127563027 4.999999999999998
    vertex -2.1650635094610964 -1.2500000000000004 4.999999999999998
  endloop
endfacet
facet normal 0.0 0.0 -1.0
  outer loop
    vertex -2.1750000000000003 -3.767210506462308 5.0
    vertex -2.1650635094610964 -1.2500000000000004 4.999999999999998
    vertex -1.1258628461959652 -4.201777344357446 5.0
  endloop
endfacet
facet normal 0.0 0.0 -1.0
  outer loop
    vertex -1.1258628461959652 -4.201777344357446 5.0
    vertex -2.1650635094610964 -1.2500000000000004 4.999999999999998
    vertex -1.767766952966369 -1.767766952966369 4.999999999999998
  endloop
endfacet
facet normal 0.0 0.0 -1.0
  outer loop
    vertex -1.1258628461959652 -4.201777344357446 5.0
    vertex -1.767766952966369 -1.767766952966369 4.999999999999998
    vertex -1.2499999999999991 -2.1650635094610964 4.999999999999998
  endloop
endfacet
facet normal 0.0 0.0 -1.0
  outer loop
    vertex -1.1258628461959652 -4.201777344357446 5.0
    vertex -1.2499999999999991 -2.1650635094610964 4.999999999999998
    vertex -0.6470476127563013 -2.4148145657226703 4.999999999999998
  endloop
endfacet
facet normal 0.0 0.0 -1.0
  outer loop
    vertex -1.1258628461959652 -4.201777344357446 5.0
    vertex -0.6470476127563013 -2.4148145657226703 4.999999999999998
    vertex 0.0 -4.35 5.0
  endloop
endfacet
facet normal 0.0 0.0 -1.0
  outer loop
    vertex 0.0 -4.35 5.0
    vertex -0.6470476127563013 -2.4148145657226703 4.999999999999998
    vertex 0.0 -2.4999999999999996 4.999999999999998
  endloop
endfacet
facet normal 0.0 0.0 -1.0
  outer loop
    vertex 0.0 -4.35 5.0
    vertex 0.0 -2.4999999999999996 4.999999999999998
    vertex 0.6470476127563027 -2.4148145657226703 4.999999999999998
  endloop
endfacet
facet normal 0.0 0.0 -1.0
  outer loop
    vertex 0.0 -4.35 5.0
    vertex 0.6470476127563027 -2.4148145657226703 4.999999999999998
    vertex 1.1258628461959639 -4.201777344357447 5.0
  endloop
endfacet
facet normal 0.0 0.0 -1.0
  outer loop
    vertex 1.1258628461959639 -4.201777344357447 5.0
    vertex 0.6470476127563027 -2.4148145657226703 4.999999999999998
    vertex 1.2500000000000004 -2.1650635094610964 4.999999999999998
  endloop
endfacet
facet normal 0.0 0.0 -1.0
  outer loop
    vertex 1.1258628461959639 -4.201777344357447 5.0
    vertex 1.2500000000000004 -2.1650635094610964 4.999999999999998
    vertex 2.174999999999999 -3.767210506462308 5.0
  endloop
endfacet
facet normal 0.0 0.0 -1.0
  outer loop
    vertex 2.174999999999999 -3.767210506462308 5.0
    vertex 1.2500000000000004 -2.1650635094610964 4.999999999999998
    vertex 1.767766952966369 -1.767766952966369 4.999999999999998
  endloop
endfacet
facet normal 0.0 0.0 -1.0
  outer loop
    vertex 2.174999999999999 -3.767210506462308 5.0
    vertex 1.767766952966369 -1.767766952966369 4.999999999999998
    vertex 2.1650635094610964 -1.2499999999999991 4.999999999999998
  endloop
endfacet
facet normal 0.0 0.0 -1.0
  outer loop
    vertex 2.174999999999999 -3.767210506462308 5.0
    vertex 2.1650635094610964 -1.2499999999999991 4.999999999999998
    vertex 2.4148145657226703 -0.6470476127563013 4.999999999999998
  endloop
endfacet
facet normal 0.0 0.0 -1.0
  outer loop
    vertex 2.174999999999999 -3.767210506462308 5.0
    vertex 2.4148145657226703 -0.6470476127563013 4.999999999999998
    vertex 3.075914498161482 -3.075914498161482 5.0
  endloop
endfacet
facet normal 0.0 0.0 -1.0
  outer loop
    vertex 3.075914498161482 -3.075914498161482 5.0
    vertex 2.4148145657226703 -0.6470476127563013 4.999999999999998
    vertex 2.4999999999999996 0.0 4.999999999999998
  endloop
endfacet
facet normal 0.0 0.0 -1.0
  outer loop
    vertex 3.075914498161482 -3.075914498161482 5.0
    vertex 2.4999999999999996 0.0 4.999999999999998
    vertex 3.075914498161482 3.0759144981614788 5.0
  endloop
endfacet
facet normal 0.0 0.0 -1.0
  outer loop
    vertex 3.075914498161482 -3.075914498161482 5.0
    vertex 3.075914498161482 3.0759144981614788 5.0
    vertex 3.7672105064623094 2.174999999999999 5.0
  endloop
endfacet
facet normal 0.0 0.0 -1.0
  outer loop
    vertex 3.075914498161482 -3.075914498161482 5.0
    vertex 3.7672105064623094 2.174999999999999 5.0
    vertex 3.7672105064623063 -2.1750000000000016 5.0
  endloop
endfacet
facet normal 0.0 0.0 -1.0
  outer loop
    vertex 3.7672105064623063 -2.1750000000000016 5.0
    vertex 3.7672105064623094 2.174999999999999 5.0
    vertex 4.2017773443574455 -1.1258628461959668 5.0
  endloop
endfacet
facet normal 0.0 0.0 -1.0
  outer loop
    vertex 4.2017773443574455 -1.1258628461959668 5.0
    vertex 3.7672105064623094 2.174999999999999 5.0
    vertex 4.2017773443574455 1.1258628461959639 5.0
  endloop
endfacet
facet normal 0.0 0.0 -1.0
  outer loop
    vertex 4.2017773443574455 -1.1258628461959668 5.0
    vertex 4.2017773443574455 1.1258628461959639 5.0
    vertex 4.349999999999999 0.0 5.0
  endloop
endfacet
facet normal -0.6087614290087204 0.7933533402912353 0.0
  outer loop
    vertex 1.2500000000000004 -2.1650635094610964 10.0
    vertex 1.767766952966369 -1.767766952966369 4.999999999999998
    vertex 1.2500000000000004 -2.1650635094610964 4.999999999999998
  endloop
endfacet
facet normal -0.6087614290087204 0.7933533402912353 0.0
  outer loop
    vertex 1.767766952966369 -1.767766952966369 4.999999999999998
    vertex 1.2500000000000004 -2.1650635094610964 10.0
    vertex 1.767766952966369 -1.767766952966369 10.0
  endloop
endfacet
facet normal -0.13052619222005168 0.9914448613738105 0.0
  outer loop
    vertex 0.0 -2.4999999999999996 10.0
    vertex 0.6470476127563027 -2.4148145657226703 4.999999999999998
    vertex 0.0 -2.4999999999999996 4.999999999999998
  endloop
endfacet
facet normal -0.13052619222005168 0.9914448613738105 0.0
  outer loop
    vertex 0.6470476127563027 -2.4148145657226703 4.999999999999998
    vertex 0.0 -2.4999999999999996 10.0
    vertex 0.6470476127563027 -2.4148145657226703 10.0
  endloop
endfacet
facet normal -0.9238795325112871 0.3826834323650894 0.0
  outer loop
    vertex 2.4148145657226703 -0.6470476127563013 10.0
    vertex 2.1650635094610964 -1.2499999999999991 4.999999999999998
    vertex 2.1650635094610964 -1.2499999999999991 10.0
  endloop
endfacet
facet normal -0.9238795325112871 0.3826834323650894 0.0
  outer loop
    vertex 2.1650635094610964 -1.2499999999999991 4.999999999999998
    vertex 2.4148145657226703 -0.6470476127563013 10.0
    vertex 2.4148145657226703 -0.6470476127563013 4.999999999999998
  endloop
endfacet
facet normal -0.9914448613738105 -0.13052619222005188 -0.0
  outer loop
    vertex 2.4148145657226703 0.6470476127563041 10.0
    vertex 2.4999999999999996 0.0 4.999999999999998
    vertex 2.4999999999999996 0.0 10.0
  endloop
endfacet
facet normal -0.9914448613738105 -0.13052619222005188 -0.0
  outer loop
    vertex 2.4999999999999996 0.0 4.999999999999998
    vertex 2.4148145657226703 0.6470476127563041 10.0
    vertex 2.4148145657226703 0.6470476127563041 4.999999999999998
  endloop
endfacet
facet normal -0.9914448613738104 0.13052619222005174 0.0
  outer loop
    vertex 2.4999999999999996 0.0 10.0
    vertex 2.4148145657226703 -0.6470476127563013 4.999999999999998
    vertex 2.4148145657226703 -0.6470476127563013 10.0
  endloop
endfacet
facet normal -0.9914448613738104 0.13052619222005174 0.0
  outer loop
    vertex 2.4148145657226703 -0.6470476127563013 4.999999999999998
    vertex 2.4999999999999996 0.0 10.0
    vertex 2.4999999999999996 0.0 4.999999999999998
  endloop
endfacet
facet normal -0.9238795325112864 -0.3826834323650908 -0.0
  outer loop
    vertex 2.1650635094610964 1.2500000000000004 10.0
    vertex 2.4148145657226703 0.6470476127563041 4.999999999999998
    vertex 2.4148145657226703 0.6470476127563041 10.0
  endloop
endfacet
facet normal -0.9238795325112864 -0.3826834323650908 -0.0
  outer loop
    vertex 2.4148145657226703 0.6470476127563041 4.999999999999998
    vertex 2.1650635094610964 1.2500000000000004 10.0
    vertex 2.1650635094610964 1.2500000000000004 4.999999999999998
  endloop
endfacet
facet normal -0.7933533402912352 -0.6087614290087208 -0.0
  outer loop
    vertex 1.767766952966369 1.767766952966369 10.0
    vertex 2.1650635094610964 1.2500000000000004 4.999999999999998
    vertex 2.1650635094610964 1.2500000000000004 10.0
  endloop
endfacet
facet normal -0.7933533402912352 -0.6087614290087208 -0.0
  outer loop
    vertex 2.1650635094610964 1.2500000000000004 4.999999999999998
    vertex 1.767766952966369 1.767766952966369 10.0
    vertex 1.767766952966369 1.767766952966369 4.999999999999998
  endloop
endfacet
facet normal -0.6087614290087203 -0.7933533402912355 -0.0
  outer loop
    vertex 1.767766952966369 1.767766952966369 10.0
    vertex 1.2499999999999991 2.1650635094610977 4.999999999999998
    vertex 1.767766952966369 1.767766952966369 4.999999999999998
  endloop
endfacet
facet normal -0.6087614290087203 -0.7933533402912355 -0.0
  outer loop
    vertex 1.2499999999999991 2.1650635094610977 4.999999999999998
    vertex 1.767766952966369 1.767766952966369 10.0
    vertex 1.2499999999999991 2.1650635094610977 10.0
  endloop
endfacet
facet normal -0.3826834323650899 0.9238795325112867 0.0
  outer loop
    vertex 0.6470476127563027 -2.4148145657226703 10.0
    vertex 1.2500000000000004 -2.1650635094610964 4.999999999999998
    vertex 0.6470476127563027 -2.4148145657226703 4.999999999999998
  endloop
endfacet
facet normal -0.3826834323650899 0.9238795325112867 0.0
  outer loop
    vertex 1.2500000000000004 -2.1650635094610964 4.999999999999998
    vertex 0.6470476127563027 -2.4148145657226703 10.0
    vertex 1.2500000000000004 -2.1650635094610964 10.0
  endloop
endfacet
facet normal 0.6087614290087204 0.7933533402912353 0.0
  outer loop
    vertex -1.767766952966369 -1.767766952966369 10.0
    vertex -1.2499999999999991 -2.1650635094610964 4.999999999999998
    vertex -1.767766952966369 -1.767766952966369 4.999999999999998
  endloop
endfacet
facet normal 0.6087614290087204 0.7933533402912353 0.0
  outer loop
    vertex -1.2499999999999991 -2.1650635094610964 4.999999999999998
    vertex -1.767766952966369 -1.767766952966369 10.0
    vertex -1.2499999999999991 -2.1650635094610964 10.0
  endloop
endfacet
facet normal 0.13052619222005177 0.9914448613738104 0.0
  outer loop
    vertex -0.6470476127563013 -2.4148145657226703 10.0
    vertex 0.0 -2.4999999999999996 4.999999999999998
    vertex -0.6470476127563013 -2.4148145657226703 4.999999999999998
  endloop
endfacet
facet normal 0.13052619222005177 0.9914448613738104 0.0
  outer loop
    vertex 0.0 -2.4999999999999996 4.999999999999998
    vertex -0.6470476127563013 -2.4148145657226703 10.0
    vertex 0.0 -2.4999999999999996 10.0
  endloop
endfacet
facet normal 0.9914448613738105 0.13052619222005168 0.0
  outer loop
    vertex -2.4999999999999996 0.0 4.999999999999998
    vertex -2.4148145657226703 -0.6470476127563027 10.0
    vertex -2.4148145657226703 -0.6470476127563027 4.999999999999998
  endloop
endfacet
facet normal 0.9914448613738105 0.13052619222005168 0.0
  outer loop
    vertex -2.4148145657226703 -0.6470476127563027 10.0
    vertex -2.4999999999999996 0.0 4.999999999999998
    vertex -2.4999999999999996 0.0 10.0
  endloop
endfacet
facet normal 0.9914448613738105 -0.13052619222005138 0.0
  outer loop
    vertex -2.4148145657226703 0.6470476127563013 4.999999999999998
    vertex -2.4999999999999996 0.0 10.0
    vertex -2.4999999999999996 0.0 4.999999999999998
  endloop
endfacet
facet normal 0.9914448613738105 -0.13052619222005138 0.0
  outer loop
    vertex -2.4999999999999996 0.0 10.0
    vertex -2.4148145657226703 0.6470476127563013 4.999999999999998
    vertex -2.4148145657226703 0.6470476127563013 10.0
  endloop
endfacet
facet normal 0.3826834323650894 0.923879532511287 0.0
  outer loop
    vertex -1.2499999999999991 -2.1650635094610964 10.0
    vertex -0.6470476127563013 -2.4148145657226703 4.999999999999998
    vertex -1.2499999999999991 -2.1650635094610964 4.999999999999998
  endloop
endfacet
facet normal 0.3826834323650894 0.923879532511287 0.0
  outer loop
    vertex -0.6470476127563013 -2.4148145657226703 4.999999999999998
    vertex -1.2499999999999991 -2.1650635094610964 10.0
    vertex -0.6470476127563013 -2.4148145657226703 10.0
  endloop
endfacet
facet normal -0.7933533402912353 0.6087614290087204 0.0
  outer loop
    vertex 2.1650635094610964 -1.2499999999999991 10.0
    vertex 1.767766952966369 -1.767766952966369 4.999999999999998
    vertex 1.767766952966369 -1.767766952966369 10.0
  endloop
endfacet
facet normal -0.7933533402912353 0.6087614290087204 0.0
  outer loop
    vertex 1.767766952966369 -1.767766952966369 4.999999999999998
    vertex 2.1650635094610964 -1.2499999999999991 10.0
    vertex 2.1650635094610964 -1.2499999999999991 4.999999999999998
  endloop
endfacet
facet normal 0.793353340291235 0.6087614290087209 0.0
  outer loop
    vertex -2.1650635094610964 -1.2500000000000004 4.999999999999998
    vertex -1.767766952966369 -1.767766952966369 10.0
    vertex -1.767766952966369 -1.767766952966369 4.999999999999998
  endloop
endfacet
facet normal 0.793353340291235 0.6087614290087209 0.0
  outer loop
    vertex -1.767766952966369 -1.767766952966369 10.0
    vertex -2.1650635094610964 -1.2500000000000004 4.999999999999998
    vertex -2.1650635094610964 -1.2500000000000004 10.0
  endloop
endfacet
facet normal 0.9238795325112871 -0.3826834323650891 0.0
  outer loop
    vertex -2.1650635094610964 1.2499999999999991 4.999999999999998
    vertex -2.4148145657226703 0.6470476127563013 10.0
    vertex -2.4148145657226703 0.6470476127563013 4.999999999999998
  endloop
endfacet
facet normal 0.9238795325112871 -0.3826834323650891 0.0
  outer loop
    vertex -2.4148145657226703 0.6470476127563013 10.0
    vertex -2.1650635094610964 1.2499999999999991 4.999999999999998
    vertex -2.1650635094610964 1.2499999999999991 10.0
  endloop
endfacet
facet normal 0.9238795325112866 0.38268343236509006 0.0
  outer loop
    vertex -2.4148145657226703 -0.6470476127563027 4.999999999999998
    vertex -2.1650635094610964 -1.2500000000000004 10.0
    vertex -2.1650635094610964 -1.2500000000000004 4.999999999999998
  endloop
endfacet
facet normal 0.9238795325112866 0.38268343236509006 0.0
  outer loop
    vertex -2.1650635094610964 -1.2500000000000004 10.0
    vertex -2.4148145657226703 -0.6470476127563027 4.999999999999998
    vertex -2.4148145657226703 -0.6470476127563027 10.0
  endloop
endfacet
facet normal 0.0 0.0 -1.0
  outer loop
    vertex -9.659258262890683 2.5881904510252065 0.0
    vertex -9.659258262890683 -2.5881904510252123 0.0
    vertex -10.0 -2.8199664825478975e-15 0.0
  endloop
endfacet
facet normal 0.0 0.0 -1.0
  outer loop
    vertex -9.659258262890683 -2.5881904510252123 0.0
    vertex -9.659258262890683 2.5881904510252065 0.0
    vertex -8.660254037844387 5.000000000000001 0.0
  endloop
endfacet
facet normal 0.0 0.0 -1.0
  outer loop
    vertex -9.659258262890683 -2.5881904510252123 0.0
    vertex -8.660254037844387 5.000000000000001 0.0
    vertex -8.660254037844384 -5.000000000000005 0.0
  endloop
endfacet
facet normal 0.0 0.0 -1.0
  outer loop
    vertex -8.660254037844384 -5.000000000000005 0.0
    vertex -8.660254037844387 5.000000000000001 0.0
    vertex -7.071067811865475 7.071067811865475 0.0
  endloop
endfacet
facet normal 0.0 0.0 -1.0
  outer loop
    vertex -8.660254037844384 -5.000000000000005 0.0
    vertex -7.071067811865475 7.071067811865475 0.0
    vertex -7.07106781186547 -7.07106781186548 0.0
  endloop
endfacet
facet normal 0.0 0.0 -1.0
  outer loop
    vertex -7.07106781186547 -7.07106781186548 0.0
    vertex -7.071067811865475 7.071067811865475 0.0
    vertex -4.999999999999998 8.660254037844387 0.0
  endloop
endfacet
facet normal 0.0 0.0 -1.0
  outer loop
    vertex -7.07106781186547 -7.07106781186548 0.0
    vertex -4.999999999999998 8.660254037844387 0.0
    vertex -4.999999999999996 -8.660254037844389 0.0
  endloop
endfacet
facet normal 0.0 0.0 -1.0
  outer loop
    vertex -4.999999999999996 -8.660254037844389 0.0
    vertex -4.999999999999998 8.660254037844387 0.0
    vertex -4.349999999999999 0.0 0.0
  endloop
endfacet
facet normal 0.0 0.0 -1.0
  outer loop
    vertex -4.349999999999999 0.0 0.0
    vertex -4.999999999999998 8.660254037844387 0.0
    vertex -4.201777344357445 1.125862846195968 0.0
  endloop
endfacet
facet normal 0.0 0.0 -1.0
  outer loop
    vertex -4.201777344357445 1.125862846195968 0.0
    vertex -4.999999999999998 8.660254037844387 0.0
    vertex -2.588190451025204 9.659258262890685 0.0
  endloop
endfacet
facet normal 0.0 0.0 -1.0
  outer loop
    vertex -4.201777344357445 1.125862846195968 0.0
    vertex -2.588190451025204 9.659258262890685 0.0
    vertex -3.767210506462306 2.1750000000000016 0.0
  endloop
endfacet
facet normal 0.0 0.0 -1.0
  outer loop
    vertex -3.767210506462306 2.1750000000000016 0.0
    vertex -2.588190451025204 9.659258262890685 0.0
    vertex -3.0759144981614805 3.075914498161482 0.0
  endloop
endfacet
facet normal 0.0 0.0 -1.0
  outer loop
    vertex -3.0759144981614805 3.075914498161482 0.0
    vertex -2.588190451025204 9.659258262890685 0.0
    vertex -2.1749999999999976 3.7672105064623094 0.0
  endloop
endfacet
facet normal 0.0 0.0 -1.0
  outer loop
    vertex -2.1749999999999976 3.7672105064623094 0.0
    vertex -2.588190451025204 9.659258262890685 0.0
    vertex 2.8199664825478975e-15 10.0 0.0
  endloop
endfacet
facet normal 0.0 0.0 -1.0
  outer loop
    vertex -2.1749999999999976 3.7672105064623094 0.0
    vertex 2.8199664825478975e-15 10.0 0.0
    vertex -1.1258628461959626 4.2017773443574455 0.0
  endloop
endfacet
facet normal 0.0 0.0 -1.0
  outer loop
    vertex -1.1258628461959626 4.2017773443574455 0.0
    vertex 2.8199664825478975e-15 10.0 0.0
    vertex 1.4099832412739487e-15 4.349999999999999 0.0
  endloop
endfacet
facet normal 0.0 0.0 -1.0
  outer loop
    vertex 1.4099832412739487e-15 4.349999999999999 0.0
    vertex 2.8199664825478975e-15 10.0 0.0
    vertex 1.125862846195968 4.2017773443574455 0.0
  endloop
endfacet
facet normal 0.0 0.0 -1.0
  outer loop
    vertex 1.125862846195968 4.2017773443574455 0.0
    vertex 2.8199664825478975e-15 10.0 0.0
    vertex 2.588190451025209 9.659258262890683 0.0
  endloop
endfacet
facet normal 0.0 0.0 -1.0
  outer loop
    vertex 1.125862846195968 4.2017773443574455 0.0
    vertex 2.588190451025209 9.659258262890683 0.0
    vertex 2.1750000000000016 3.7672105064623063 0.0
  endloop
endfacet
facet normal 0.0 0.0 -1.0
  outer loop
    vertex 2.1750000000000016 3.7672105064623063 0.0
    vertex 2.588190451025209 9.659258262890683 0.0
    vertex 3.075914498161482 3.0759144981614788 0.0
  endloop
endfacet
facet normal 0.0 0.0 -1.0
  outer loop
    vertex 3.075914498161482 3.0759144981614788 0.0
    vertex 2.588190451025209 9.659258262890683 0.0
    vertex 5.000000000000001 8.660254037844386 0.0
  endloop
endfacet
facet normal 0.0 0.0 -1.0
  outer loop
    vertex 3.075914498161482 3.0759144981614788 0.0
    vertex 5.000000000000001 8.660254037844386 0.0
    vertex 3.7672105064623094 2.174999999999999 0.0
  endloop
endfacet
facet normal 0.0 0.0 -1.0
  outer loop
    vertex 3.7672105064623094 2.174999999999999 0.0
    vertex 5.000000000000001 8.660254037844386 0.0
    vertex 4.2017773443574455 1.1258628461959639 0.0
  endloop
endfacet
facet normal 0.0 0.0 -1.0
  outer loop
    vertex 4.2017773443574455 1.1258628461959639 0.0
    vertex 5.000000000000001 8.660254037844386 0.0
    vertex 4.349999999999999 0.0 0.0
  endloop
endfacet
facet normal 0.0 0.0 -1.0
  outer loop
    vertex 4.349999999999999 0.0 0.0
    vertex 5.000000000000001 8.660254037844386 0.0
    vertex 4.999999999999995 -8.66025403784439 0.0
  endloop
endfacet
facet normal 0.0 0.0 -1.0
  outer loop
    vertex 4.999999999999995 -8.66025403784439 0.0
    vertex 5.000000000000001 8.660254037844386 0.0
    vertex 7.071067811865469 -7.071067811865483 0.0
  endloop
endfacet
facet normal 0.0 0.0 -1.0
  outer loop
    vertex 7.071067811865469 -7.071067811865483 0.0
    vertex 5.000000000000001 8.660254037844386 0.0
    vertex 7.071067811865475 7.071067811865475 0.0
  endloop
endfacet
facet normal 0.0 0.0 -1.0
  outer loop
    vertex 7.071067811865469 -7.071067811865483 0.0
    vertex 7.071067811865475 7.071067811865475 0.0
    vertex 8.660254037844378 -5.0000000000000115 0.0
  endloop
endfacet
facet normal 0.0 0.0 -1.0
  outer loop
    vertex 8.660254037844378 -5.0000000000000115 0.0
    vertex 7.071067811865475 7.071067811865475 0.0
    vertex 8.660254037844387 5.000000000000001 0.0
  endloop
endfacet
facet normal 0.0 0.0 -1.0
  outer loop
    vertex 8.660254037844378 -5.0000000000000115 0.0
    vertex 8.660254037844387 5.000000000000001 0.0
    vertex 9.65925826289068 -2.5881904510252234 0.0
  endloop
endfacet
facet normal 0.0 0.0 -1.0
  outer loop
    vertex 9.65925826289068 -2.5881904510252234 0.0
    vertex 8.660254037844387 5.000000000000001 0.0
    vertex 9.659258262890683 2.5881904510252065 0.0
  endloop
endfacet
facet normal 0.0 0.0 -1.0
  outer loop
    vertex 9.65925826289068 -2.5881904510252234 0.0
    vertex 9.659258262890683 2.5881904510252065 0.0
    vertex 10.0 -1.973976537783528e-14 0.0
  endloop
endfacet
facet normal 0.0 0.0 -1.0
  outer loop
    vertex -4.999999999999996 -8.660254037844389 0.0
    vertex -4.201777344357446 -1.1258628461959652 0.0
    vertex -2.5881904510252065 -9.659258262890683 0.0
  endloop
endfacet
facet normal 0.0 0.0 -1.0
  outer loop
    vertex -4.201777344357446 -1.1258628461959652 0.0
    vertex -4.999999999999996 -8.660254037844389 0.0
    vertex -4.349999999999999 0.0 0.0
  endloop
endfacet
facet normal 0.0 0.0 -1.0
  outer loop
    vertex -2.5881904510252065 -9.659258262890683 0.0
    vertex -4.201777344357446 -1.1258628461959652 0.0
    vertex -3.767210506462307 -2.1750000000000003 0.0
  endloop
endfacet
facet normal 0.0 0.0 -1.0
  outer loop
    vertex -2.5881904510252065 -9.659258262890683 0.0
    vertex -3.767210506462307 -2.1750000000000003 0.0
    vertex -3.075914498161482 -3.075914498161482 0.0
  endloop
endfacet
facet normal 0.0 0.0 -1.0
  outer loop
    vertex -2.5881904510252065 -9.659258262890683 0.0
    vertex -3.075914498161482 -3.075914498161482 0.0
    vertex -2.1750000000000003 -3.767210506462308 0.0
  endloop
endfacet
facet normal 0.0 0.0 -1.0
  outer loop
    vertex -2.5881904510252065 -9.659258262890683 0.0
    vertex -2.1750000000000003 -3.767210506462308 0.0
    vertex -1.4099832412739487e-15 -10.0 0.0
  endloop
endfacet
facet normal 0.0 0.0 -1.0
  outer loop
    vertex -1.4099832412739487e-15 -10.0 0.0
    vertex -2.1750000000000003 -3.767210506462308 0.0
    vertex -1.1258628461959652 -4.201777344357446 0.0
  endloop
endfacet
facet normal 0.0 0.0 -1.0
  outer loop
    vertex -1.4099832412739487e-15 -10.0 0.0
    vertex -1.1258628461959652 -4.201777344357446 0.0
    vertex 0.0 -4.35 0.0
  endloop
endfacet
facet normal 0.0 0.0 -1.0
  outer loop
    vertex -1.4099832412739487e-15 -10.0 0.0
    vertex 0.0 -4.35 0.0
    vertex 2.588190451025204 -9.659258262890685 0.0
  endloop
endfacet
facet normal 0.0 0.0 -1.0
  outer loop
    vertex 2.588190451025204 -9.659258262890685 0.0
    vertex 0.0 -4.35 0.0
    vertex 1.1258628461959639 -4.201777344357447 0.0
  endloop
endfacet
facet normal 0.0 0.0 -1.0
  outer loop
    vertex 2.588190451025204 -9.659258262890685 0.0
    vertex 1.1258628461959639 -4.201777344357447 0.0
    vertex 2.174999999999999 -3.767210506462308 0.0
  endloop
endfacet
facet normal 0.0 0.0 -1.0
  outer loop
    vertex 2.588190451025204 -9.659258262890685 0.0
    vertex 2.174999999999999 -3.767210506462308 0.0
    vertex 3.075914498161482 -3.075914498161482 0.0
  endloop
endfacet
facet normal 0.0 0.0 -1.0
  outer loop
    vertex 2.588190451025204 -9.659258262890685 0.0
    vertex 3.075914498161482 -3.075914498161482 0.0
    vertex 4.999999999999995 -8.66025403784439 0.0
  endloop
endfacet
facet normal 0.0 0.0 -1.0
  outer loop
    vertex 4.999999999999995 -8.66025403784439 0.0
    vertex 3.075914498161482 -3.075914498161482 0.0
    vertex 3.7672105064623063 -2.1750000000000016 0.0
  endloop
endfacet
facet normal 0.0 0.0 -1.0
  outer loop
    vertex 4.999999999999995 -8.66025403784439 0.0
    vertex 3.7672105064623063 -2.1750000000000016 0.0
    vertex 4.2017773443574455 -1.1258628461959668 0.0
  endloop
endfacet
facet normal 0.0 0.0 -1.0
  outer loop
    vertex 4.999999999999995 -8.66025403784439 0.0
    vertex 4.2017773443574455 -1.1258628461959668 0.0
    vertex 4.349999999999999 0.0 0.0
  endloop
endfacet
facet normal 0.7933533402912357 0.6087614290087201 0.0
  outer loop
    vertex -3.767210506462307 -2.1750000000000003 0.0
    vertex -3.075914498161482 -3.075914498161482 5.0
    vertex -3.075914498161482 -3.075914498161482 0.0
  endloop
endfacet
facet normal 0.7933533402912357 0.6087614290087201 0.0
  outer loop
    vertex -3.075914498161482 -3.075914498161482 5.0
    vertex -3.767210506462307 -2.1750000000000003 0.0
    vertex -3.767210506462307 -2.1750000000000003 5.0
  endloop
endfacet
facet normal 0.6087614290087207 -0.7933533402912353 0.0
  outer loop
    vertex -2.1749999999999976 3.7672105064623094 5.0
    vertex -3.0759144981614805 3.075914498161482 0.0
    vertex -2.1749999999999976 3.7672105064623094 0.0
  endloop
endfacet
facet normal 0.6087614290087207 -0.7933533402912353 0.0
  outer loop
    vertex -3.0759144981614805 3.075914498161482 0.0
    vertex -2.1749999999999976 3.7672105064623094 5.0
    vertex -3.0759144981614805 3.075914498161482 5.0
  endloop
endfacet
facet normal -0.6087614290087211 -0.7933533402912348 -0.0
  outer loop
    vertex 3.075914498161482 3.0759144981614788 5.0
    vertex 2.1750000000000016 3.7672105064623063 0.0
    vertex 3.075914498161482 3.0759144981614788 0.0
  endloop
endfacet
facet normal -0.6087614290087211 -0.7933533402912348 -0.0
  outer loop
    vertex 2.1750000000000016 3.7672105064623063 0.0
    vertex 3.075914498161482 3.0759144981614788 5.0
    vertex 2.1750000000000016 3.7672105064623063 5.0
  endloop
endfacet
facet normal 0.13052619222005196 0.9914448613738105 0.0
  outer loop
    vertex -1.1258628461959652 -4.201777344357446 5.0
    vertex 0.0 -4.35 0.0
    vertex -1.1258628461959652 -4.201777344357446 0.0
  endloop
endfacet
facet normal 0.13052619222005196 0.9914448613738105 0.0
  outer loop
    vertex 0.0 -4.35 0.0
    vertex -1.1258628461959652 -4.201777344357446 5.0
    vertex 0.0 -4.35 5.0
  endloop
endfacet
facet normal -0.13052619222005238 -0.9914448613738104 -0.0
  outer loop
    vertex 1.125862846195968 4.2017773443574455 5.0
    vertex 1.4099832412739487e-15 4.349999999999999 0.0
    vertex 1.125862846195968 4.2017773443574455 0.0
  endloop
endfacet
facet normal -0.13052619222005238 -0.9914448613738104 -0.0
  outer loop
    vertex 1.4099832412739487e-15 4.349999999999999 0.0
    vertex 1.125862846195968 4.2017773443574455 5.0
    vertex 1.4099832412739487e-15 4.349999999999999 5.0
  endloop
endfacet
facet normal -0.38268343236509 -0.9238795325112866 -0.0
  outer loop
    vertex 2.1750000000000016 3.7672105064623063 5.0
    vertex 1.125862846195968 4.2017773443574455 0.0
    vertex 2.1750000000000016 3.7672105064623063 0.0
  endloop
endfacet
facet normal -0.38268343236509 -0.9238795325112866 -0.0
  outer loop
    vertex 1.125862846195968 4.2017773443574455 0.0
    vertex 2.1750000000000016 3.7672105064623063 5.0
    vertex 1.125862846195968 4.2017773443574455 5.0
  endloop
endfacet
facet normal 0.3826834323650897 0.9238795325112868 0.0
  outer loop
    vertex -2.1750000000000003 -3.767210506462308 5.0
    vertex -1.1258628461959652 -4.201777344357446 0.0
    vertex -2.1750000000000003 -3.767210506462308 0.0
  endloop
endfacet
facet normal 0.3826834323650897 0.9238795325112868 0.0
  outer loop
    vertex -1.1258628461959652 -4.201777344357446 0.0
    vertex -2.1750000000000003 -3.767210506462308 5.0
    vertex -1.1258628461959652 -4.201777344357446 5.0
  endloop
endfacet
facet normal 0.6087614290087205 0.7933533402912352 0.0
  outer loop
    vertex -3.075914498161482 -3.075914498161482 5.0
    vertex -2.1750000000000003 -3.767210506462308 0.0
    vertex -3.075914498161482 -3.075914498161482 0.0
  endloop
endfacet
facet normal 0.6087614290087205 0.7933533402912352 0.0
  outer loop
    vertex -2.1750000000000003 -3.767210506462308 0.0
    vertex -3.075914498161482 -3.075914498161482 5.0
    vertex -2.1750000000000003 -3.767210506462308 5.0
  endloop
endfacet
facet normal 0.9914448613738104 -0.1305261922200522 0.0
  outer loop
    vertex -4.201777344357445 1.125862846195968 0.0
    vertex -4.349999999999999 0.0 5.0
    vertex -4.349999999999999 0.0 0.0
  endloop
endfacet
facet normal 0.9914448613738104 -0.1305261922200522 0.0
  outer loop
    vertex -4.349999999999999 0.0 5.0
    vertex -4.201777344357445 1.125862846195968 0.0
    vertex -4.201777344357445 1.125862846195968 5.0
  endloop
endfacet
facet normal 0.7933533402912353 -0.6087614290087207 0.0
  outer loop
    vertex -3.0759144981614805 3.075914498161482 0.0
    vertex -3.767210506462306 2.1750000000000016 5.0
    vertex -3.767210506462306 2.1750000000000016 0.0
  endloop
endfacet
facet normal 0.7933533402912353 -0.6087614290087207 0.0
  outer loop
    vertex -3.767210506462306 2.1750000000000016 5.0
    vertex -3.0759144981614805 3.075914498161482 0.0
    vertex -3.0759144981614805 3.075914498161482 5.0
  endloop
endfacet
facet normal 0.9238795325112865 -0.3826834323650906 0.0
  outer loop
    vertex -3.767210506462306 2.1750000000000016 0.0
    vertex -4.201777344357445 1.125862846195968 5.0
    vertex -4.201777344357445 1.125862846195968 0.0
  endloop
endfacet
facet normal 0.9238795325112865 -0.3826834323650906 0.0
  outer loop
    vertex -4.201777344357445 1.125862846195968 5.0
    vertex -3.767210506462306 2.1750000000000016 0.0
    vertex -3.767210506462306 2.1750000000000016 5.0
  endloop
endfacet
facet normal 0.38268343236508867 -0.9238795325112872 0.0
  outer loop
    vertex -1.1258628461959626 4.2017773443574455 5.0
    vertex -2.1749999999999976 3.7672105064623094 0.0
    vertex -1.1258628461959626 4.2017773443574455 0.0
  endloop
endfacet
facet normal 0.38268343236508867 -0.9238795325112872 0.0
  outer loop
    vertex -2.1749999999999976 3.7672105064623094 0.0
    vertex -1.1258628461959626 4.2017773443574455 5.0
    vertex -2.1749999999999976 3.7672105064623094 5.0
  endloop
endfacet
facet normal 0.9914448613738105 0.1305261922200514 0.0
  outer loop
    vertex -4.349999999999999 0.0 0.0
    vertex -4.201777344357446 -1.1258628461959652 5.0
    vertex -4.201777344357446 -1.1258628461959652 0.0
  endloop
endfacet
facet normal 0.9914448613738105 0.1305261922200514 0.0
  outer loop
    vertex -4.201777344357446 -1.1258628461959652 5.0
    vertex -4.349999999999999 0.0 0.0
    vertex -4.349999999999999 0.0 5.0
  endloop
endfacet
facet normal 0.9238795325112866 0.38268343236509006 0.0
  outer loop
    vertex -4.201777344357446 -1.1258628461959652 0.0
    vertex -3.767210506462307 -2.1750000000000003 5.0
    vertex -3.767210506462307 -2.1750000000000003 0.0
  endloop
endfacet
facet normal 0.9238795325112866 0.38268343236509006 0.0
  outer loop
    vertex -3.767210506462307 -2.1750000000000003 5.0
    vertex -4.201777344357446 -1.1258628461959652 0.0
    vertex -4.201777344357446 -1.1258628461959652 5.0
  endloop
endfacet
facet normal 0.13052619222005155 -0.9914448613738105 0.0
  outer loop
    vertex 1.4099832412739487e-15 4.349999999999999 5.0
    vertex -1.1258628461959626 4.2017773443574455 0.0
    vertex 1.4099832412739487e-15 4.349999999999999 0.0
  endloop
endfacet
facet normal 0.13052619222005155 -0.9914448613738105 0.0
  outer loop
    vertex -1.1258628461959626 4.2017773443574455 0.0
    vertex 1.4099832412739487e-15 4.349999999999999 5.0
    vertex -1.1258628461959626 4.2017773443574455 5.0
  endloop
endfacet
facet normal -0.7933533402912356 -0.6087614290087201 -0.0
  outer loop
    vertex 3.075914498161482 3.0759144981614788 5.0
    vertex 3.7672105064623094 2.174999999999999 0.0
    vertex 3.7672105064623094 2.174999999999999 5.0
  endloop
endfacet
facet normal -0.7933533402912356 -0.6087614290087201 -0.0
  outer loop
    vertex 3.7672105064623094 2.174999999999999 0.0
    vertex 3.075914498161482 3.0759144981614788 5.0
    vertex 3.075914498161482 3.0759144981614788 0.0
  endloop
endfacet
endsolid YAxisEndStopBumper
